<svg width="38" height="56" viewBox="0 0 38 56" fill="none" xmlns="http://www.w3.org/2000/svg">
<path fill-rule="evenodd" clip-rule="evenodd" d="M0.734009 19.8584C0.734009 34.067 19.3666 55.0416 19.3666 55.0416C19.3666 55.0416 37.9993 34.067 37.9993 19.8584C37.9993 9.38466 29.6678 0.913635 19.3666 0.913635C9.06546 0.913635 0.734009 9.38466 0.734009 19.8584ZM14.6612 24.6427C13.4132 23.3738 12.7121 21.6529 12.7121 19.8584C12.7121 18.064 13.4132 16.343 14.6612 15.0741C15.9092 13.8053 17.6018 13.0924 19.3666 13.0924C21.1315 13.0924 22.8241 13.8053 24.0721 15.0741C25.3201 16.343 26.0212 18.064 26.0212 19.8584C26.0212 21.6529 25.3201 23.3738 24.0721 24.6427C22.8241 25.9116 21.1315 26.6244 19.3666 26.6244C17.6018 26.6244 15.9092 25.9116 14.6612 24.6427Z" fill="url(#paint0_linear_4_88)"/>
<defs>
<linearGradient id="paint0_linear_4_88" x1="0.416159" y1="57.2386" x2="37.6871" y2="57.6763" gradientUnits="userSpaceOnUse">
<stop stop-color="#001C80"/>
<stop offset="0.302083" stop-color="#153ABF"/>
<stop offset="1" stop-color="#2B59FF"/>
</linearGradient>
</defs>
</svg>
