<svg width="189" height="230" viewBox="0 0 189 230" fill="none" xmlns="http://www.w3.org/2000/svg">
<path d="M115.496 112.191C109.389 126.8 85.2484 173.931 69.7697 177.068C59.6154 179.128 18.7431 174.609 11.8299 164.83C8.8204 160.575 14.4084 131.23 19.8128 132.476C25.2172 133.721 58.0029 138.495 62.0502 137.377C66.0975 136.26 96.7677 101.901 108.167 93.4156C127.853 78.7989 118.792 104.328 115.496 112.191Z" fill="#AD6359"/>
<path d="M102.1 143.325L78.95 120.47C78.95 120.47 96.3686 103.913 104.272 96.178C113.747 86.9099 125.985 83.4772 120.493 101.582C115.184 119.001 102.1 143.325 102.1 143.325Z" fill="white"/>
<path d="M101.43 134.87C92.8961 125.355 85.2724 119.448 83.5641 117.803C83.4842 117.723 83.3725 117.859 83.4603 117.939C85.2165 119.464 93.2473 127.917 101.31 135.022C101.43 135.102 101.502 134.958 101.43 134.87Z" fill="#263238"/>
<path opacity="0.1" d="M83.4204 124.908L102.1 143.325C102.1 143.325 115.184 119.001 120.461 101.582C122.656 94.326 122.01 90.5342 119.838 89.1851L83.4204 124.908Z" fill="black"/>
<path d="M144.298 172.358C144.298 172.358 143.228 184.412 141.647 201.855L141.504 203.38C140.705 211.945 139.843 221.7 138.909 231.919H84.1228C88.0504 201.216 91.4431 174.761 91.7305 172.51V172.35L144.298 172.358Z" fill="white"/>
<path d="M136.618 179.263C136.272 183.478 135.918 187.696 135.556 191.916C135.453 193.138 135.333 194.351 135.229 195.572C134.167 207.682 133.05 219.792 131.804 231.886H131.006C132.347 219.441 133.593 206.988 134.854 194.527L135.261 190.471C135.636 186.735 136.059 183.015 136.403 179.295C136.435 179.136 136.634 179.136 136.618 179.263Z" fill="#263238"/>
<path d="M157.086 172.358C157.086 172.358 154.588 186.496 151.083 206.301C151.019 206.621 150.963 206.932 150.908 207.267L146.541 231.91H108.375L107.505 226.171L107.337 225.045L107.289 224.75L106.659 220.535L106.411 218.938L99.3382 172.342L157.086 172.358Z" fill="#263238"/>
<path d="M174.162 231.927H119.926C119.926 231.703 119.926 231.528 119.926 231.384C119.926 231.24 119.926 231.033 119.926 231.033C119.639 230.873 119.351 230.713 119.056 230.562C116.006 228.901 113.332 227.608 111.129 226.626L110.043 226.139C109.045 225.708 108.151 225.341 107.409 225.053C105.501 224.295 104.439 223.96 104.439 223.96C104.375 223.8 104.319 223.648 104.264 223.489C96.7517 204.37 92.2255 175.232 91.8024 172.518V172.311H165.852C165.852 172.311 180.133 192.898 172.773 217.015C172.677 217.023 173.659 226.81 174.162 231.927Z" fill="white"/>
<path d="M101.725 222.595C108.002 224.876 114.068 227.699 119.854 231.033C119.897 231.059 119.928 231.1 119.942 231.148C119.957 231.196 119.954 231.247 119.933 231.293C119.913 231.339 119.877 231.375 119.831 231.397C119.786 231.418 119.735 231.422 119.687 231.408C113.58 228.79 107.353 226.275 101.398 223.321C101.308 223.274 101.239 223.194 101.206 223.098C101.173 223.002 101.178 222.897 101.22 222.804C101.262 222.712 101.337 222.638 101.431 222.6C101.525 222.561 101.63 222.559 101.725 222.595Z" fill="#263238"/>
<path d="M99.7852 180.676C99.7852 180.461 100.168 180.413 100.168 180.676C100.12 187.925 100.583 194.311 101.19 201.089C101.478 204.234 104.008 221.621 109.46 220.351C110.378 220.144 110.841 219.242 110.985 217.869C111.161 216.208 110.538 214.181 110.259 212.536C109.66 208.896 109.173 205.24 108.862 201.56C108.223 194.713 108.295 187.819 109.077 180.988C109.077 180.941 109.096 180.896 109.129 180.864C109.162 180.831 109.206 180.812 109.253 180.812C109.299 180.812 109.344 180.831 109.377 180.864C109.41 180.896 109.429 180.941 109.429 180.988C109.429 190.487 109.676 199.971 111.089 209.383C111.775 213.909 114.051 220.718 109.325 221.413C104.599 222.108 101.39 210.716 100.799 207.595C99.1625 198.885 99.0907 189.482 99.7852 180.676Z" fill="#263238"/>
<path d="M109.317 220.79C109.806 221.962 110.217 223.165 110.546 224.391C110.897 225.341 111.07 226.348 111.057 227.36C111.05 227.401 111.03 227.438 111.002 227.467C110.973 227.497 110.936 227.517 110.896 227.526C110.856 227.534 110.814 227.531 110.776 227.515C110.738 227.5 110.705 227.474 110.682 227.44C110.115 226.55 109.687 225.578 109.413 224.558C108.997 223.441 108.558 222.331 108.175 221.206C108.12 221.054 108.128 220.887 108.196 220.741C108.264 220.595 108.387 220.482 108.538 220.427C108.69 220.372 108.857 220.379 109.003 220.448C109.149 220.516 109.262 220.639 109.317 220.79Z" fill="#263238"/>
<path d="M134.008 186.36C134.001 185.601 134.078 184.843 134.239 184.101C134.248 184.079 134.263 184.059 134.283 184.045C134.303 184.032 134.327 184.024 134.351 184.024C134.375 184.024 134.399 184.032 134.419 184.045C134.439 184.059 134.454 184.079 134.463 184.101C134.616 184.74 134.702 185.393 134.718 186.049C134.79 186.799 134.894 187.55 134.974 188.3C135.132 189.831 135.399 191.349 135.772 192.842C136.459 195.667 137.899 198.252 139.939 200.322C141.959 202.317 144.351 203.896 146.98 204.968C149.918 206.206 152.999 206.669 156.025 207.563C156.152 207.563 156.112 207.778 156.025 207.786C152.666 207.778 149.34 207.122 146.23 205.855C143.479 204.821 140.975 203.225 138.877 201.169C136.773 199.041 135.293 196.376 134.598 193.465C134.25 191.969 134.052 190.442 134.008 188.907C133.96 188.059 133.96 187.208 134.008 186.36Z" fill="#263238"/>
<path opacity="0.2" d="M89.631 188.947L94.7561 189.251L142.534 192.037L174.018 193.873C172.72 186.211 169.912 178.885 165.756 172.319H91.7066V172.526C91.5948 173.548 90.8125 179.671 89.631 188.947Z" fill="black"/>
<path d="M88.5214 186.456L95.0434 149.575C90.5803 144.011 88.4077 136.953 88.9685 129.842C89.6709 121.164 113.835 90.5661 115.424 89.0812C121.81 83.11 132.882 85.2016 137.081 88.8417C157.35 106.404 171.799 165.294 173.723 186.456H88.5214Z" fill="white"/>
<path d="M109.413 146.654C113.373 147.464 117.268 148.563 121.068 149.943C122.943 150.661 124.78 151.451 126.6 152.29C127.51 152.713 128.428 153.088 129.354 153.479C130.31 153.907 131.316 154.215 132.347 154.397C132.366 154.397 132.385 154.405 132.398 154.418C132.412 154.432 132.419 154.45 132.419 154.469C132.419 154.488 132.412 154.506 132.398 154.52C132.385 154.533 132.366 154.541 132.347 154.541C131.361 154.477 130.379 154.349 129.41 154.158C128.474 153.935 127.554 153.652 126.656 153.311C124.748 152.601 122.872 151.811 120.964 151.084C117.124 149.623 113.284 148.162 109.349 146.973C109.141 146.925 109.221 146.614 109.413 146.654Z" fill="#263238"/>
<path d="M99.1226 149.096C102.458 149.121 105.79 149.335 109.101 149.735C110.754 149.942 112.382 150.246 114.019 150.589C114.817 150.757 115.615 150.94 116.342 151.124C117.068 151.307 118.018 151.651 118.872 151.85C118.96 151.85 118.952 152.01 118.872 151.994C118.074 151.834 117.22 151.81 116.406 151.691L113.931 151.347C112.286 151.124 110.642 150.916 108.989 150.669C105.7 150.19 102.412 149.735 99.1067 149.368C98.9071 149.328 98.955 149.096 99.1226 149.096Z" fill="#263238"/>
<path opacity="0.1" d="M119.265 126.799L139.334 128.404L139.613 124.916L119.544 123.31L119.265 126.799Z" fill="black"/>
<path d="M134.215 100.728C136.275 108.328 153.247 164.543 153.175 167.417C153.175 167.417 182.799 187.031 188.204 169.013C191.708 157.319 158.906 110.738 143.124 93.5354C136.498 86.3428 129.889 84.7702 134.215 100.728Z" fill="#AD6359"/>
<path d="M170.833 127.144L143.851 136.643C143.851 136.643 135.868 113.964 132.834 103.331C129.873 93.0328 127.941 79.3023 141.911 92.0589C155.354 104.329 170.833 127.144 170.833 127.144Z" fill="white"/>
<path d="M166.538 122.546C154.276 126.146 145.655 130.481 143.436 131.327C143.332 131.327 143.436 131.534 143.515 131.486C145.647 130.56 156.735 126.944 166.618 122.705C166.738 122.673 166.658 122.506 166.538 122.546Z" fill="#263238"/>
<path d="M143.851 136.643C142.853 134.616 141.999 132.524 141.176 130.432C140.354 128.341 139.58 126.202 138.877 124.046C138.175 121.891 137.488 119.751 136.89 117.58L135.996 114.315C135.732 113.221 135.445 112.128 135.197 111.026C135.996 113.142 136.722 115.273 137.456 117.412L139.62 123.799L141.735 130.185L143.851 136.643Z" fill="#263238"/>
<path d="M137.257 117.779C136.538 117.272 135.912 116.646 135.405 115.927C134.869 115.228 134.469 114.435 134.223 113.588C134.827 114.207 135.382 114.872 135.884 115.576C136.409 116.266 136.868 117.004 137.257 117.779Z" fill="#263238"/>
<path d="M129.881 84.7223C135.996 86.9016 133.601 94.2459 131.781 97.3193C127.558 104.408 118.21 109.844 116.414 108.91C114.617 107.976 114.386 94.5412 115.743 90.9968C117.1 87.4524 123.247 82.3594 129.881 84.7223Z" fill="#AD6359"/>
<path d="M132.802 89.2968C132.427 90.8933 125.777 100.289 118.577 99.922C116.238 99.8022 115.432 87.7561 115.432 87.7561L115.224 86.8061L112.31 73.5386L127.925 63.5999L130.184 62.2827C130.184 62.2827 130.743 65.9708 131.389 70.561C131.389 70.7765 131.453 70.992 131.477 71.2156C131.501 71.4391 131.565 71.7185 131.597 71.9659C131.701 72.6445 131.805 73.347 131.9 74.0495C131.972 74.5763 132.044 75.0952 132.092 75.6461C132.14 76.1969 132.22 76.7477 132.284 77.3145C132.727 81.2922 132.901 85.2955 132.802 89.2968Z" fill="#AD6359"/>
<path d="M131.389 70.5607C130.04 74.2845 127.894 77.6693 125.102 80.479C122.31 83.2888 118.939 85.4561 115.224 86.8298L112.31 73.5623L127.925 63.6236L130.184 62.3064C130.184 62.3064 130.743 65.9705 131.389 70.5607Z" fill="#263238"/>
<path d="M93.7422 50.6998C89.7508 74.2174 103.386 79.2625 108.463 80.1167C113.061 80.915 128.835 82.9506 135.237 59.9759C141.639 37.0012 131.964 27.7091 121.531 25.3781C111.097 23.0471 97.7337 27.1903 93.7422 50.6998Z" fill="#AD6359"/>
<path d="M103.282 46.3571C103.829 46.3851 104.378 46.3851 104.926 46.3571C105.509 46.4228 106.098 46.2967 106.603 45.9979C106.743 45.8745 106.838 45.7077 106.873 45.524C106.908 45.3403 106.88 45.1502 106.794 44.9841C106.576 44.6789 106.281 44.4373 105.938 44.2843C105.596 44.1314 105.219 44.0726 104.846 44.1139C104.08 44.0832 103.33 44.3362 102.739 44.8244C102.619 44.9449 102.536 45.0968 102.499 45.2626C102.461 45.4284 102.472 45.6013 102.528 45.7614C102.585 45.9216 102.686 46.0625 102.819 46.1679C102.952 46.2733 103.113 46.3389 103.282 46.3571Z" fill="#263238"/>
<path d="M119.056 49.7018C118.539 49.5198 118.033 49.3093 117.539 49.0712C116.972 48.9228 116.47 48.5917 116.11 48.1292C116.025 47.9631 115.997 47.773 116.032 47.5893C116.066 47.4056 116.161 47.2388 116.302 47.1154C116.615 46.9092 116.979 46.7908 117.353 46.7725C117.728 46.7543 118.101 46.8368 118.433 47.0116C119.16 47.2599 119.768 47.7729 120.134 48.4485C120.21 48.6066 120.238 48.7834 120.215 48.9573C120.192 49.1312 120.119 49.2946 120.005 49.4276C119.89 49.5606 119.74 49.6574 119.571 49.7061C119.403 49.7548 119.224 49.7533 119.056 49.7018Z" fill="#263238"/>
<path d="M114.817 55.0261C114.817 54.9702 114.929 55.1298 114.913 55.1937C114.522 56.7903 114.346 58.6423 115.663 59.4805C115.711 59.4805 115.663 59.5843 115.663 59.5603C113.931 58.9457 114.202 56.4949 114.817 55.0261Z" fill="#263238"/>
<path d="M116.597 53.6696C119.2 54.0209 118.305 59.1858 115.895 58.8665C113.484 58.5472 114.418 53.3743 116.597 53.6696Z" fill="#263238"/>
<path d="M117.555 54.1007C117.962 54.4759 118.314 55.0666 118.848 55.2183C119.383 55.37 120.038 54.923 120.533 54.4759C120.589 54.428 120.621 54.4759 120.613 54.5558C120.461 55.5456 119.902 56.4956 118.816 56.4557C117.731 56.4158 117.276 55.4259 117.22 54.3881C117.188 54.2125 117.396 53.973 117.555 54.1007Z" fill="#263238"/>
<path d="M105.764 52.7592C105.764 52.6953 105.629 52.815 105.613 52.8789C105.357 54.4755 104.814 56.2796 103.218 56.5271C103.17 56.5271 103.162 56.6149 103.218 56.6149C105.046 56.7107 105.772 54.3238 105.764 52.7592Z" fill="#263238"/>
<path d="M104.663 50.8195C102.14 50.1249 100.935 55.226 103.282 55.8726C105.629 56.5192 106.786 51.4022 104.663 50.8195Z" fill="#263238"/>
<path d="M103.601 50.8511C103.09 51.0347 102.531 51.4418 102.004 51.37C101.478 51.2982 101.023 50.6436 100.735 50.0289C100.735 49.965 100.655 50.0289 100.639 50.0289C100.392 51.0028 100.536 52.0964 101.549 52.4876C102.563 52.8788 103.362 52.1443 103.841 51.2183C103.904 51.0826 103.825 50.7793 103.601 50.8511Z" fill="#263238"/>
<path d="M112.119 68.4695C111.688 68.8048 111.233 69.2678 110.642 69.2678C110.045 69.1808 109.474 68.9686 108.966 68.6451C108.918 68.6451 108.854 68.6451 108.886 68.7169C109.073 69.0648 109.352 69.3545 109.693 69.5544C110.034 69.7543 110.423 69.8567 110.818 69.8505C111.157 69.809 111.476 69.6666 111.734 69.4418C111.991 69.2169 112.176 68.9199 112.262 68.5892C112.302 68.4695 112.183 68.4695 112.119 68.4695Z" fill="#263238"/>
<path d="M106.219 60.3588C106.219 60.3588 105.421 62.6818 105.238 63.8074C105.238 63.9112 105.485 64.0149 105.86 64.1027C105.86 64.1027 105.86 64.1027 105.9 64.1027C106.837 64.4621 107.854 64.5554 108.841 64.3723C109.827 64.1891 110.743 63.7367 111.488 63.065C111.592 62.9692 111.488 62.8255 111.352 62.8734C109.738 63.59 107.935 63.7664 106.211 63.3763C106.211 63.049 107.664 59.4328 107.489 59.3849C106.599 59.2987 105.702 59.3336 104.822 59.4886C106.291 54.6031 108.527 49.989 109.916 45.1195C109.921 45.0851 109.915 45.05 109.898 45.0194C109.882 44.9888 109.856 44.9644 109.824 44.95C109.793 44.9355 109.757 44.9318 109.723 44.9393C109.689 44.9469 109.659 44.9653 109.636 44.9917C106.946 49.6617 105.134 55.2497 103.497 60.263C103.242 60.8856 105.717 60.4865 106.219 60.3588Z" fill="#263238"/>
<path d="M105.972 63.7996C106.425 64.8443 107.14 65.7544 108.048 66.4419C108.552 66.8036 109.159 66.9963 109.78 66.9927C111.137 66.9927 111.464 65.8193 111.48 64.7655C111.483 64.2011 111.419 63.6383 111.289 63.0891C109.638 63.8901 107.775 64.1392 105.972 63.7996Z" fill="#263238"/>
<path d="M108.047 66.4419C108.552 66.8036 109.159 66.9964 109.78 66.9928C111.137 66.9928 111.464 65.8193 111.48 64.7655C110.083 64.558 108.494 65.1487 108.047 66.4419Z" fill="#FF9ABB"/>
<path d="M135.525 58.4433C132.922 58.1001 126.616 50.4126 127.31 37.7517C127.31 37.7517 127.478 49.1672 128.212 50.8915C128.947 52.6158 124.684 46.5648 125.107 36.3467C125.107 36.3467 119.168 40.0188 114.258 41.0247C109.349 42.0305 106.403 41.7751 106.084 41.3999C105.764 41.0247 113.005 39.3004 115.08 37.2328C115.08 37.2328 101.853 42.27 95.9215 42.302C95.235 42.302 95.4266 28.2042 104.974 22.8956C114.522 17.587 128.524 25.051 132.116 29.0823C132.116 29.0823 136.642 30.0642 141.121 37.169C145.599 44.2737 138.335 58.8105 135.525 58.4433Z" fill="#263238"/>
<path d="M130.384 28.7304C128.72 27.5481 126.993 26.4581 125.211 25.4654C123.465 24.4463 121.649 23.5552 119.774 22.7991C117.928 22.0414 116.007 21.4822 114.043 21.1307C113.562 21.0277 113.073 20.9636 112.582 20.9391C112.095 20.9391 111.6 20.8433 111.113 20.8433C110.144 20.8492 109.178 20.9562 108.231 21.1626C107.291 21.3511 106.375 21.6457 105.501 22.0408C104.625 22.4818 103.786 22.9945 102.994 23.5735C102.194 24.1425 101.444 24.7781 100.751 25.4734C100.086 26.2003 99.4678 26.9681 98.8991 27.7725C97.7767 29.4266 96.9101 31.2404 96.3286 33.1529C95.6958 35.0843 95.3095 37.0879 95.1791 39.1161C94.866 34.934 95.838 30.7561 97.9651 27.1418C99.0328 25.3021 100.468 23.7016 102.18 22.4399C103.022 21.7936 103.923 21.227 104.87 20.7475C105.849 20.2882 106.878 19.9426 107.936 19.7177C110.044 19.2832 112.22 19.2968 114.322 19.7576C116.372 20.1714 118.363 20.8419 120.245 21.7534C123.969 23.5345 127.39 25.8888 130.384 28.7304Z" fill="#263238"/>
<path d="M131.19 61.1408C131.19 61.1408 136.985 54.1478 140.203 56.2713C143.42 58.3947 138.606 68.8363 134.567 69.9858C134.054 70.1686 133.51 70.2459 132.967 70.2131C132.424 70.1804 131.893 70.0382 131.406 69.7951C130.919 69.5521 130.486 69.2132 130.134 68.7987C129.781 68.3843 129.516 67.9029 129.354 67.3834L131.19 61.1408Z" fill="#AD6359"/>
<path d="M138.758 59.2334C138.768 59.2375 138.777 59.2447 138.783 59.254C138.789 59.2632 138.793 59.2741 138.793 59.2853C138.793 59.2965 138.789 59.3074 138.783 59.3166C138.777 59.3259 138.768 59.333 138.758 59.3372C135.892 60.2392 134.223 62.69 132.986 65.2685C133.888 64.3105 135.062 63.8395 136.355 64.9332C136.419 64.9891 136.355 65.1008 136.267 65.0769C135.792 64.8814 135.269 64.8379 134.768 64.9523C134.268 65.0667 133.816 65.3333 133.473 65.7155C132.908 66.3601 132.41 67.0609 131.988 67.807C131.844 68.0465 131.405 67.8789 131.525 67.5995V67.5356C131.765 63.9992 134.958 59.2813 138.758 59.2334Z" fill="#263238"/>
<path d="M133.984 70.1698C133.996 70.4287 133.932 70.6854 133.798 70.9074C133.664 71.1295 133.468 71.3069 133.233 71.4172C132.999 71.5274 132.737 71.5656 132.481 71.5269C132.224 71.4882 131.985 71.3742 131.794 71.1996C131.602 71.0249 131.467 70.7974 131.405 70.5458C131.343 70.2941 131.357 70.0298 131.445 69.7861C131.534 69.5425 131.692 69.3305 131.901 69.1772C132.11 69.0238 132.36 68.9358 132.619 68.9245C132.79 68.9159 132.962 68.9414 133.124 68.9994C133.285 69.0575 133.434 69.147 133.561 69.2628C133.688 69.3785 133.79 69.5183 133.863 69.674C133.936 69.8297 133.977 69.9982 133.984 70.1698Z" fill="white"/>
<path d="M131.765 28.9862C136.682 32.0676 150.445 28.8664 154.979 21.0033C161.221 10.2184 146.725 -5.3801 134.694 1.8444C122.664 9.0689 127.933 26.6153 131.765 28.9862Z" fill="#263238"/>
<path d="M150.365 3.53687C153.401 6.27257 155.717 9.71317 157.11 13.5554C157.758 15.3577 157.833 17.3163 157.324 19.1628C156.815 21.0093 155.748 22.6532 154.268 23.8692C152.777 25.1832 151.118 26.2945 149.335 27.1742C147.562 28.1123 145.687 28.8435 143.747 29.3535C139.807 30.4212 135.639 30.2934 131.773 28.9863C135.522 31.0963 139.909 31.7769 144.122 30.9022C146.238 30.5067 148.292 29.8302 150.229 28.8905C152.198 27.9726 154.028 26.7821 155.665 25.3541C157.374 23.8448 158.598 21.8648 159.186 19.6623C159.689 17.451 159.49 15.1381 158.619 13.0445C156.916 9.09846 154.033 5.77697 150.365 3.53687Z" fill="#263238"/>
<path d="M112.606 107.259C112.606 107.259 116.797 100.872 112.231 98.3897C107.664 95.907 104.551 102.836 104.551 102.836L112.606 107.259Z" fill="#455A64"/>
<path d="M78.942 149.511L78.7903 156.959L78.7264 159.418L80.786 158.061L86.9967 153.934L112.773 107.003L104.719 102.58L78.942 149.519V149.511Z" fill="#455A64"/>
<path d="M78.7903 156.967L78.7264 159.426L80.786 158.069L78.7903 156.967Z" fill="#263238"/>
<path d="M103.178 103.802L112.582 108.968L113.608 107.1L104.204 101.934L103.178 103.802Z" fill="#263238"/>
<path d="M102.042 105.871L111.445 111.037L112.472 109.168L103.068 104.003L102.042 105.871Z" fill="#263238"/>
<path d="M111.432 111.042L108.407 109.373L100.751 127.279L101.901 127.83L111.432 111.042Z" fill="#263238"/>
<path d="M148.792 134.241C144.409 133.442 112.973 162.237 118.912 164.999C146.341 177.731 171.831 180.725 177.858 179.911C185.761 178.833 189.593 169.637 188.172 164.615C186.112 157.335 153.127 134.991 148.792 134.241Z" fill="#AD6359"/>
<path d="M88.9764 110.555C87.4836 115.225 99.2903 117.915 99.2903 117.915C97.2611 118.498 95.4992 119.772 94.309 121.515C92.3612 124.709 96.4803 129.131 96.4803 129.131C94.5004 130.174 92.8791 131.787 91.8263 133.761C90.2297 136.954 93.7821 142.055 93.7821 142.055C92.4934 144.018 91.9523 146.377 92.2574 148.705C93.3271 154.884 102.499 157.885 107.808 160.863C113.5 164.056 123.143 165.709 127.422 167.984L148.792 134.24C148.792 134.24 131.605 113.485 121.267 109.796C115.535 107.737 91.2516 103.434 88.9764 110.555Z" fill="#AD6359"/>
<path d="M99.434 117.819C106.092 117.955 112.702 119.687 119.064 121.436C119.078 121.44 119.091 121.447 119.103 121.456C119.114 121.465 119.124 121.477 119.131 121.49C119.138 121.503 119.142 121.517 119.144 121.532C119.145 121.546 119.144 121.561 119.14 121.575C119.136 121.589 119.129 121.603 119.119 121.614C119.11 121.626 119.099 121.635 119.086 121.642C119.073 121.649 119.058 121.654 119.044 121.655C119.029 121.657 119.014 121.655 119 121.651C112.694 119.847 105.748 119.679 99.3861 118.131C99.3502 118.119 99.3196 118.095 99.2999 118.062C99.2801 118.03 99.2724 117.992 99.2781 117.955C99.2839 117.917 99.3027 117.883 99.3312 117.858C99.3598 117.834 99.3962 117.82 99.434 117.819Z" fill="#263238"/>
<path d="M96.7917 128.708C98.3027 128.888 99.7839 129.264 101.198 129.826C102.723 130.328 104.248 130.855 105.756 131.422C108.782 132.532 111.784 133.705 114.745 134.967C114.881 135.022 114.825 135.238 114.681 135.19C111.664 134.088 108.628 133.048 105.573 132.069C104.04 131.59 102.499 131.111 100.967 130.656C99.4729 130.312 98.0218 129.803 96.64 129.139C96.5918 129.113 96.5545 129.07 96.5348 129.019C96.5151 128.967 96.5143 128.911 96.5326 128.859C96.5508 128.807 96.5869 128.764 96.6344 128.736C96.6818 128.708 96.7376 128.698 96.7917 128.708Z" fill="#263238"/>
<path d="M93.9098 142.103C95.219 142.103 96.616 142.846 97.8214 143.317C99.1891 143.849 100.56 144.381 101.933 144.913C104.679 145.951 107.425 146.981 110.211 147.923C110.347 147.971 110.291 148.186 110.147 148.138C107.313 147.204 104.471 146.302 101.645 145.336C100.264 144.865 98.8752 144.386 97.4941 143.899C96.3207 143.484 94.8039 143.101 93.8539 142.303C93.8275 142.295 93.8051 142.278 93.7916 142.254C93.7781 142.23 93.7747 142.202 93.7821 142.175C93.7895 142.149 93.8071 142.126 93.8311 142.113C93.8551 142.099 93.8834 142.096 93.9098 142.103Z" fill="#263238"/>
<path d="M123.359 110.707C121.539 109.565 118.569 107.825 112.71 107.785C112.55 107.785 112.574 107.865 112.71 107.897C116.355 108.397 119.921 109.366 123.319 110.779C123.367 110.779 123.399 110.731 123.359 110.707Z" fill="#263238"/>
<path d="M148.792 134.24C148.792 134.24 160.679 139.445 168.885 146.646L148.792 134.24Z" fill="#263238"/>
<path d="M31.1165 180.381L87.4357 180.014L64.9559 112.982L8.63674 113.349L31.1165 180.381Z" fill="#C7C7C7"/>
<path d="M27.9155 180.381L84.2347 180.014L61.7629 112.982L5.44369 113.349L27.9155 180.381Z" fill="#A6A6A6"/>
<path d="M21.3535 117.22L48.0402 117.021L45.5495 109.629L18.8628 109.828L21.3535 117.22Z" fill="#EBEBEB"/>
<path d="M24.9218 109.789L28.2107 109.765L27.0612 106.356L35.0521 106.292L36.1936 109.701L39.4826 109.677L37.391 103.467L22.7904 103.578L24.9218 109.789Z" fill="#EBEBEB"/>
<path d="M9.62662 128.964C7.48721 134.759 1.46014 142.263 1.32443 146.853C1.25134 147.983 1.5442 149.107 2.15961 150.057C2.77501 151.008 3.68021 151.735 4.7411 152.13C4.7411 152.13 0.414385 154.796 0.973186 158.987C1.26057 161.135 4.96462 162.564 4.96462 162.564C4.96462 162.564 1.58787 164.855 2.32229 168.551C2.90504 171.489 6.52127 172.479 6.52127 172.479C6.52127 172.479 4.30204 176.183 5.8587 178.993C9.01194 184.684 34.637 182.377 37.7503 172.606C39.2032 168.032 32.9606 168.942 32.9606 168.942C32.9606 168.942 41.606 165.478 41.2707 160.161C40.9355 154.844 32.9047 156.529 32.9047 156.529C32.9047 156.529 41.2548 153.104 40.3447 147.644C39.4028 141.968 31.6594 145.001 31.6594 145.001C31.6594 145.001 37.0159 140.627 35.3634 136.611C32.6333 129.978 22.5908 139.525 16.8671 138.695L12.9156 129.69L9.62662 128.964Z" fill="#AD6359"/>
<path d="M5.19614 137.497C6.74481 131.837 -0.65532 125.674 0.0471731 120.046C0.989152 112.431 10.0577 119.001 12.8996 129.682L13.658 138.359L5.19614 137.497Z" fill="#AD6359"/>
<path d="M7.04019 172.718C7.02611 172.723 7.01388 172.732 7.00524 172.744C6.99659 172.756 6.99196 172.771 6.99196 172.786C6.99196 172.801 6.99659 172.815 7.00524 172.827C7.01388 172.84 7.02611 172.849 7.04019 172.854C15.6537 174.155 25.5205 172.933 33.3038 168.91C33.5593 168.774 33.4555 168.303 33.1442 168.391C24.3151 171.01 16.2844 172.63 7.04019 172.718Z" fill="#263238"/>
<path d="M4.83689 162.667C4.7411 162.667 4.7411 162.827 4.83689 162.843C13.7218 164.136 24.7941 162.46 33.216 156.76C33.5114 156.56 33.5672 156.097 33.216 156.297C27.3246 159.634 13.1391 162.595 4.83689 162.667Z" fill="#263238"/>
<path d="M32.1303 144.387C23.8361 149.536 14.7277 151.515 5.08435 152.202C4.95663 152.202 4.98057 152.386 5.08435 152.409C9.87408 153.359 15.9969 152.282 20.6749 151.044C25.0416 149.97 29.0496 147.768 32.298 144.658C32.4417 144.554 32.306 144.307 32.1303 144.387Z" fill="#263238"/>
</svg>
