<svg width="139" height="30" viewBox="0 0 139 30" fill="none" xmlns="http://www.w3.org/2000/svg">
<path d="M42.152 20V7.31H45.464V12.206H50.702V7.31H53.996V20H50.702V14.924H45.464V20H42.152ZM60.9104 20.198C59.8304 20.198 58.8944 20.012 58.1024 19.64C57.3224 19.256 56.7224 18.716 56.3024 18.02C55.8824 17.324 55.6724 16.502 55.6724 15.554C55.6724 14.654 55.8704 13.856 56.2664 13.16C56.6744 12.464 57.2264 11.924 57.9224 11.54C58.6304 11.144 59.4344 10.946 60.3344 10.946C61.2224 10.946 61.9904 11.132 62.6384 11.504C63.2984 11.876 63.8024 12.41 64.1504 13.106C64.5104 13.79 64.6904 14.594 64.6904 15.518V16.22H58.7324C58.8404 16.796 59.0804 17.21 59.4524 17.462C59.8244 17.714 60.3404 17.84 61.0004 17.84C61.4564 17.84 61.9304 17.774 62.4224 17.642C62.9264 17.498 63.3704 17.294 63.7544 17.03L64.5464 19.136C64.0904 19.46 63.5324 19.718 62.8724 19.91C62.2124 20.102 61.5584 20.198 60.9104 20.198ZM60.4784 13.016C59.9984 13.016 59.6024 13.16 59.2904 13.448C58.9904 13.736 58.7984 14.156 58.7144 14.708H62.0624C62.0264 14.144 61.8704 13.724 61.5944 13.448C61.3304 13.16 60.9584 13.016 60.4784 13.016ZM69.1488 20.198C68.4648 20.198 67.8588 20.072 67.3308 19.82C66.8148 19.568 66.4068 19.226 66.1068 18.794C65.8188 18.35 65.6748 17.846 65.6748 17.282C65.6748 16.646 65.8428 16.142 66.1788 15.77C66.5148 15.386 67.0548 15.116 67.7988 14.96C68.5428 14.792 69.5328 14.708 70.7688 14.708H71.4528V14.456C71.4528 14.024 71.3388 13.718 71.1108 13.538C70.8948 13.358 70.5168 13.268 69.9768 13.268C69.5208 13.268 69.0168 13.34 68.4648 13.484C67.9128 13.628 67.3728 13.85 66.8448 14.15L66.0348 12.044C66.3348 11.828 66.7188 11.636 67.1868 11.468C67.6548 11.3 68.1468 11.174 68.6628 11.09C69.1788 10.994 69.6648 10.946 70.1208 10.946C71.5968 10.946 72.6888 11.264 73.3968 11.9C74.1168 12.536 74.4768 13.538 74.4768 14.906V20H71.4888V18.74C71.3328 19.196 71.0508 19.556 70.6428 19.82C70.2348 20.072 69.7368 20.198 69.1488 20.198ZM69.8688 18.11C70.3128 18.11 70.6848 17.966 70.9848 17.678C71.2968 17.39 71.4528 17.012 71.4528 16.544V16.22H70.7688C70.0608 16.22 69.5388 16.298 69.2028 16.454C68.8788 16.598 68.7168 16.832 68.7168 17.156C68.7168 17.432 68.8128 17.66 69.0048 17.84C69.2088 18.02 69.4968 18.11 69.8688 18.11ZM79.7932 20.198C78.5692 20.198 77.6812 19.892 77.1292 19.28C76.5772 18.656 76.3012 17.72 76.3012 16.472V7.31H79.5052V16.364C79.5052 17.204 79.8892 17.624 80.6572 17.624C80.7772 17.624 80.8972 17.618 81.0172 17.606C81.1492 17.594 81.2752 17.576 81.3952 17.552L81.3592 20C80.8792 20.132 80.3572 20.198 79.7932 20.198ZM86.9042 20.198C85.5602 20.198 84.5642 19.886 83.9162 19.262C83.2682 18.638 82.9442 17.696 82.9442 16.436V13.502H81.2882V11.144H82.9442V8.57H86.1482V11.144H88.6682V13.502H86.1482V16.328C86.1482 17.192 86.5862 17.624 87.4622 17.624C87.6062 17.624 87.7622 17.612 87.9302 17.588C88.1102 17.552 88.3082 17.504 88.5242 17.444L88.9562 19.748C88.6802 19.892 88.3562 20 87.9842 20.072C87.6122 20.156 87.2522 20.198 86.9042 20.198ZM89.9243 20V7.31H93.1283V12.242C93.7643 11.378 94.6883 10.946 95.9003 10.946C96.9563 10.946 97.7363 11.258 98.2403 11.882C98.7563 12.506 99.0143 13.466 99.0143 14.762V20H95.8103V14.888C95.8103 14.348 95.7143 13.964 95.5223 13.736C95.3423 13.508 95.0723 13.394 94.7123 13.394C94.2323 13.394 93.8483 13.55 93.5603 13.862C93.2723 14.162 93.1283 14.57 93.1283 15.086V20H89.9243ZM106.207 20V7.31H109.519V17.246H115.171V20H106.207ZM116.43 9.614V6.716H119.796V9.614H116.43ZM116.52 20V11.144H119.724V20H116.52ZM126.226 20.198C124.882 20.198 123.886 19.886 123.238 19.262C122.59 18.638 122.266 17.696 122.266 16.436V13.502H120.61V11.144H122.266V8.57H125.47V11.144H127.99V13.502H125.47V16.328C125.47 17.192 125.908 17.624 126.784 17.624C126.928 17.624 127.084 17.612 127.252 17.588C127.432 17.552 127.63 17.504 127.846 17.444L128.278 19.748C128.002 19.892 127.678 20 127.306 20.072C126.934 20.156 126.574 20.198 126.226 20.198ZM133.983 20.198C132.903 20.198 131.967 20.012 131.175 19.64C130.395 19.256 129.795 18.716 129.375 18.02C128.955 17.324 128.745 16.502 128.745 15.554C128.745 14.654 128.943 13.856 129.339 13.16C129.747 12.464 130.299 11.924 130.995 11.54C131.703 11.144 132.507 10.946 133.407 10.946C134.295 10.946 135.063 11.132 135.711 11.504C136.371 11.876 136.875 12.41 137.223 13.106C137.583 13.79 137.763 14.594 137.763 15.518V16.22H131.805C131.913 16.796 132.153 17.21 132.525 17.462C132.897 17.714 133.413 17.84 134.073 17.84C134.529 17.84 135.003 17.774 135.495 17.642C135.999 17.498 136.443 17.294 136.827 17.03L137.619 19.136C137.163 19.46 136.605 19.718 135.945 19.91C135.285 20.102 134.631 20.198 133.983 20.198ZM133.551 13.016C133.071 13.016 132.675 13.16 132.363 13.448C132.063 13.736 131.871 14.156 131.787 14.708H135.135C135.099 14.144 134.943 13.724 134.667 13.448C134.403 13.16 134.031 13.016 133.551 13.016Z" fill="white"/>
<path d="M-1.31134e-06 15C-1.05198e-06 17.9667 0.879733 20.8668 2.52796 23.3336C4.17618 25.8003 6.51886 27.7229 9.25975 28.8582C12.0006 29.9935 15.0166 30.2906 17.9264 29.7118C20.8361 29.133 23.5088 27.7044 25.6066 25.6066C27.7044 23.5088 29.133 20.8361 29.7118 17.9264C30.2906 15.0166 29.9935 12.0006 28.8582 9.25975C27.7229 6.51886 25.8003 4.17618 23.3336 2.52796C20.8668 0.879735 17.9667 1.05198e-06 15 1.31134e-06L15 15L-1.31134e-06 15Z" fill="#FED7A1"/>
</svg>
