<svg width="18" height="22" viewBox="0 0 18 22" fill="none" xmlns="http://www.w3.org/2000/svg">
<path d="M17.0297 6.2582L11.9859 1.21445C11.8453 1.07383 11.6555 0.994141 11.4562 0.994141H1.5C1.08516 0.994141 0.75 1.3293 0.75 1.74414V21.2441C0.75 21.659 1.08516 21.9941 1.5 21.9941H16.5C16.9148 21.9941 17.25 21.659 17.25 21.2441V6.79023C17.25 6.59102 17.1703 6.39883 17.0297 6.2582ZM15.5203 7.13477H11.1094V2.72383L15.5203 7.13477ZM15.5625 20.3066H2.4375V2.68164H9.51562V7.74414C9.51562 8.00521 9.61934 8.25559 9.80394 8.4402C9.98855 8.6248 10.2389 8.72852 10.5 8.72852H15.5625V20.3066ZM8.8125 13.9785H4.5C4.39687 13.9785 4.3125 14.0629 4.3125 14.166V15.291C4.3125 15.3941 4.39687 15.4785 4.5 15.4785H8.8125C8.91562 15.4785 9 15.3941 9 15.291V14.166C9 14.0629 8.91562 13.9785 8.8125 13.9785ZM4.3125 10.9785V12.1035C4.3125 12.2066 4.39687 12.291 4.5 12.291H13.5C13.6031 12.291 13.6875 12.2066 13.6875 12.1035V10.9785C13.6875 10.8754 13.6031 10.791 13.5 10.791H4.5C4.39687 10.791 4.3125 10.8754 4.3125 10.9785Z" fill="#45DB91"/>
</svg>
