<svg width="24" height="24" viewBox="0 0 24 24" fill="none" xmlns="http://www.w3.org/2000/svg">
<path d="M19.9607 2.42352H17.6512V1.26876C17.6512 0.962505 17.5296 0.66879 17.313 0.452232C17.0964 0.235675 16.8027 0.114014 16.4965 0.114014C16.1902 0.114014 15.8965 0.235675 15.6799 0.452232C15.4634 0.66879 15.3417 0.962505 15.3417 1.26876V2.42352H8.41321V1.26876C8.41321 0.962505 8.29155 0.66879 8.07499 0.452232C7.85843 0.235675 7.56472 0.114014 7.25846 0.114014C6.9522 0.114014 6.65849 0.235675 6.44193 0.452232C6.22537 0.66879 6.10371 0.962505 6.10371 1.26876V2.42352H3.79421C2.87543 2.42352 1.99429 2.7885 1.34461 3.43817C0.694939 4.08784 0.329956 4.96899 0.329956 5.88777V19.7448C0.329956 20.6636 0.694939 21.5447 1.34461 22.1944C1.99429 22.844 2.87543 23.209 3.79421 23.209H19.9607C20.8795 23.209 21.7606 22.844 22.4103 22.1944C23.06 21.5447 23.425 20.6636 23.425 19.7448V5.88777C23.425 4.96899 23.06 4.08784 22.4103 3.43817C21.7606 2.7885 20.8795 2.42352 19.9607 2.42352ZM21.1155 19.7448C21.1155 20.051 20.9938 20.3448 20.7773 20.5613C20.5607 20.7779 20.267 20.8995 19.9607 20.8995H3.79421C3.48795 20.8995 3.19423 20.7779 2.97768 20.5613C2.76112 20.3448 2.63946 20.051 2.63946 19.7448V11.6615H21.1155V19.7448ZM21.1155 9.35202H2.63946V5.88777C2.63946 5.58151 2.76112 5.28779 2.97768 5.07124C3.19423 4.85468 3.48795 4.73302 3.79421 4.73302H6.10371V5.88777C6.10371 6.19403 6.22537 6.48774 6.44193 6.7043C6.65849 6.92086 6.9522 7.04252 7.25846 7.04252C7.56472 7.04252 7.85843 6.92086 8.07499 6.7043C8.29155 6.48774 8.41321 6.19403 8.41321 5.88777V4.73302H15.3417V5.88777C15.3417 6.19403 15.4634 6.48774 15.6799 6.7043C15.8965 6.92086 16.1902 7.04252 16.4965 7.04252C16.8027 7.04252 17.0964 6.92086 17.313 6.7043C17.5296 6.48774 17.6512 6.19403 17.6512 5.88777V4.73302H19.9607C20.267 4.73302 20.5607 4.85468 20.7773 5.07124C20.9938 5.28779 21.1155 5.58151 21.1155 5.88777V9.35202Z" fill="#FDB557"/>
</svg>
