<svg width="18" height="18" viewBox="0 0 18 18" fill="none" xmlns="http://www.w3.org/2000/svg">
<path opacity="0.5" d="M18 7.2H0V15.3C0 16.0161 0.284464 16.7028 0.790812 17.2092C1.29716 17.7155 1.98392 18 2.7 18H15.3C16.0161 18 16.7028 17.7155 17.2092 17.2092C17.7155 16.7028 18 16.0161 18 15.3V7.2ZM4.5 5.4C4.2613 5.4 4.03239 5.30518 3.8636 5.1364C3.69482 4.96761 3.6 4.73869 3.6 4.5V0.9C3.6 0.661305 3.69482 0.432387 3.8636 0.263604C4.03239 0.0948211 4.2613 0 4.5 0C4.73869 0 4.96761 0.0948211 5.1364 0.263604C5.30518 0.432387 5.4 0.661305 5.4 0.9V4.5C5.4 4.73869 5.30518 4.96761 5.1364 5.1364C4.96761 5.30518 4.73869 5.4 4.5 5.4ZM13.5 5.4C13.2613 5.4 13.0324 5.30518 12.8636 5.1364C12.6948 4.96761 12.6 4.73869 12.6 4.5V0.9C12.6 0.661305 12.6948 0.432387 12.8636 0.263604C13.0324 0.0948211 13.2613 0 13.5 0C13.7387 0 13.9676 0.0948211 14.1364 0.263604C14.3052 0.432387 14.4 0.661305 14.4 0.9V4.5C14.4 4.73869 14.3052 4.96761 14.1364 5.1364C13.9676 5.30518 13.7387 5.4 13.5 5.4Z" fill="#FDB557"/>
</svg>
