<svg width="261" height="205" viewBox="0 0 261 205" fill="none" xmlns="http://www.w3.org/2000/svg">
<path d="M221.939 31.01L220.595 28.7689C209.227 10.0336 188.66 -1.25571 167.005 0.111334C164.218 0.280314 161.446 0.654842 158.713 1.23187C139.009 5.44506 121.87 20.3425 114.766 39.4252C110.587 50.6305 109.416 63.567 101.488 72.4808C91.1678 84.0727 73.6483 84.4369 58.241 83.9607C42.8337 83.4845 25.303 83.8879 15.0333 95.5246C8.60146 102.808 6.5565 113.179 7.07754 122.938C8.45019 148.783 26.4571 171.889 49.3552 183.374C72.2532 194.86 99.2188 195.919 124.28 190.876C159.391 183.8 192.778 164.364 212.852 134.345C232.926 104.326 237.997 63.4102 221.939 31.01Z" fill="white" fill-opacity="0.1"/>
<path d="M173.492 83.2777C173.156 78.0056 170.937 72.9744 167.828 68.7108C166.264 66.5594 164.421 64.4696 163.861 61.8699C163.121 58.4075 164.763 54.4352 162.869 51.4378C161.541 49.3256 158.841 48.4516 157.328 46.4682C155.698 44.3392 155.737 41.3978 154.773 38.899C153.81 36.4003 150.56 34.2488 148.571 36.0529C148.19 31.3411 148.952 28.6966 144.935 26.2146C140.918 23.7327 132.996 24.9316 131.455 29.3969C128.038 26.5396 121.791 23.7943 117.863 25.8897C115.443 27.1895 113.588 29.3185 111.336 30.8985C107.846 33.3412 103.582 34.3553 99.6769 36.0753C95.7719 37.7953 91.9116 40.6471 91.004 44.8154C90.3373 47.8913 91.413 51.124 90.8471 54.2167C90.3653 56.8219 88.7741 59.0574 87.5528 61.4049C86.5274 63.3721 85.7447 65.4567 85.2221 67.6127C84.2024 71.8147 84.7683 77.2324 88.6901 79.0533C87.2756 79.457 86.0483 80.3456 85.2233 81.5634C84.3983 82.7812 84.0282 84.2506 84.1779 85.7139C84.3276 87.1772 84.9875 88.5412 86.0419 89.5668C87.0964 90.5924 88.4782 91.2141 89.9451 91.3231L83.3396 103.296C82.7289 104.417 82.0958 105.627 82.3031 106.876C82.5944 108.619 84.4825 109.717 86.2249 109.733C87.9674 109.75 89.6482 108.96 91.2281 108.187C91.785 109.227 92.62 110.091 93.6397 110.683C94.6594 111.275 95.8237 111.572 97.0025 111.541C98.1813 111.509 99.3282 111.151 100.315 110.505C101.302 109.859 102.089 108.952 102.59 107.885C103.257 109.114 104.241 110.141 105.441 110.86C106.641 111.578 108.011 111.961 109.41 111.969C110.808 111.976 112.183 111.608 113.39 110.902C114.597 110.197 115.592 109.179 116.272 107.957L143.098 101.794L163.323 99.9288C166.259 99.6543 169.531 99.2004 171.329 96.8697C172.495 95.3514 172.764 93.3457 173.01 91.4464C173.418 88.7438 173.58 86.0096 173.492 83.2777Z" fill="#263238"/>
<path d="M126.654 157.49L113.7 123.124L120.424 116.4L120.16 114.238C119.426 108.831 119.157 106.613 119.157 106.663C119.157 106.713 107.504 106.176 103.302 91.5694C101.212 84.2859 100.086 72.1058 99.4865 62.0994C98.9262 53.0903 103.52 41.3696 112.541 41.2407L141.221 44.8432C142.543 44.8194 143.825 45.2926 144.815 46.1693C145.805 47.046 146.43 48.2623 146.566 49.5775L151.535 109.868L155.339 113.123L159.922 154.879L126.654 157.49Z" fill="#B47266"/>
<path d="M106.081 73.7198C106.141 74.215 106.392 74.6672 106.78 74.9808C107.168 75.2945 107.663 75.445 108.159 75.4006C108.405 75.3907 108.646 75.3317 108.868 75.2271C109.09 75.1225 109.289 74.9744 109.453 74.7916C109.617 74.6088 109.743 74.395 109.823 74.1628C109.903 73.9306 109.935 73.6847 109.919 73.4397C109.857 72.9451 109.606 72.4938 109.218 72.1804C108.83 71.867 108.337 71.7159 107.84 71.7589C107.595 71.7696 107.354 71.8291 107.133 71.9339C106.911 72.0388 106.712 72.1869 106.548 72.3695C106.384 72.5521 106.259 72.7657 106.178 72.9975C106.098 73.2294 106.065 73.475 106.081 73.7198Z" fill="#263238"/>
<path d="M125.186 72.0945C125.246 72.5896 125.497 73.0418 125.885 73.3555C126.273 73.6691 126.768 73.8197 127.264 73.7753C127.51 73.7647 127.751 73.705 127.973 73.5997C128.194 73.4944 128.393 73.3457 128.557 73.1624C128.72 72.979 128.845 72.7648 128.924 72.5323C129.004 72.2998 129.035 72.0538 129.018 71.8087C128.96 71.3135 128.711 70.8604 128.324 70.5464C127.936 70.2323 127.442 70.0822 126.945 70.1279C126.699 70.1378 126.458 70.197 126.235 70.3019C126.013 70.4069 125.813 70.5555 125.649 70.7389C125.485 70.9223 125.36 71.1368 125.28 71.3697C125.2 71.6025 125.168 71.849 125.186 72.0945Z" fill="#263238"/>
<path d="M102.921 69.081C103.19 69.2995 104.501 68.0501 106.563 67.8036C108.624 67.5571 110.249 68.3975 110.445 68.1174C110.54 67.9941 110.244 67.5571 109.526 67.1761C108.56 66.6686 107.46 66.4728 106.378 66.6159C105.308 66.7419 104.307 67.2072 103.52 67.9437C102.949 68.5096 102.792 68.969 102.921 69.081Z" fill="#263238"/>
<path d="M123.354 67.3999C123.623 67.6184 124.939 66.369 126.995 66.1225C129.052 65.876 130.682 66.7163 130.878 66.4362C130.973 66.313 130.676 65.876 129.959 65.495C128.993 64.9874 127.893 64.7917 126.811 64.9347C125.742 65.0638 124.741 65.5287 123.953 66.2625C123.382 66.8284 123.225 67.2878 123.354 67.3999Z" fill="#263238"/>
<path d="M117.622 82.1403C117.622 82.0227 116.317 81.9554 114.21 81.9498C113.65 81.9498 113.168 81.9162 113.034 81.5689C112.925 81.0306 112.982 80.4721 113.196 79.9665L114.255 75.7813C115.712 69.8201 116.692 64.9514 116.451 64.8897C116.21 64.8281 114.838 69.6184 113.381 75.5796C113.039 77.0475 112.709 78.4426 112.389 79.7816C112.266 80.4035 112.008 81.1206 112.389 81.877C112.489 82.0525 112.627 82.2031 112.792 82.3176C112.958 82.4321 113.148 82.5075 113.347 82.5381C113.649 82.577 113.954 82.577 114.255 82.5381C116.311 82.4149 117.622 82.258 117.622 82.1403Z" fill="#263238"/>
<path d="M119.174 106.646C126.204 105.888 132.886 103.194 138.475 98.864C138.475 98.864 134.738 109.868 119.65 110.31L119.174 106.646Z" fill="#89544C"/>
<path d="M118.317 87.4239C119.437 86.1521 122.536 84.1296 123.555 83.8774C124.575 83.6253 124.513 84.8747 125.236 85.7599C125.603 86.2436 125.829 86.8186 125.891 87.4222C125.954 88.0258 125.849 88.6349 125.589 89.1831C124.956 90.4325 123.623 91.5139 122.407 91.3794C121.191 91.2449 120.048 90.0291 119.045 89.3288C118.744 89.155 118.487 88.9133 118.295 88.6229C118.196 88.4611 118.141 88.2771 118.133 88.088C118.125 87.8989 118.165 87.7109 118.25 87.5416" fill="#89544C"/>
<path d="M121.157 59.8251C121.426 60.3573 123.449 59.8251 125.897 59.8251C128.346 59.8251 130.379 60.2397 130.632 59.6962C130.749 59.4385 130.346 58.9567 129.511 58.5141C128.385 57.9655 127.144 57.6947 125.892 57.7241C124.638 57.7284 123.404 58.0298 122.289 58.6037C121.426 59.0743 121.034 59.5674 121.157 59.8251Z" fill="#263238"/>
<path d="M102.635 61.8753C103.055 62.2955 104.411 61.64 106.114 61.4047C107.818 61.1694 109.297 61.3319 109.566 60.8052C109.683 60.5475 109.398 60.1049 108.714 59.7407C107.8 59.3124 106.778 59.1663 105.78 59.321C104.782 59.4756 103.853 59.9241 103.111 60.6091C102.585 61.1638 102.45 61.6848 102.635 61.8753Z" fill="#263238"/>
<path d="M144.935 68.2008C145.126 68.0776 152.874 64.4583 153.899 72.7782C154.925 81.0982 146.33 80.3922 146.285 80.1737C146.241 79.9552 144.935 68.2008 144.935 68.2008Z" fill="#B47266"/>
<path d="M148.437 76.6998C148.47 76.6662 148.594 76.7839 148.851 76.8623C149.214 76.9697 149.604 76.9315 149.938 76.7559C150.779 76.3245 151.35 74.8398 151.205 73.3383C151.142 72.6214 150.918 71.9279 150.549 71.3101C150.44 71.0598 150.272 70.8397 150.06 70.6689C149.847 70.4981 149.596 70.3816 149.328 70.3296C149.155 70.3073 148.98 70.3452 148.832 70.4371C148.684 70.529 148.572 70.6691 148.515 70.8339C148.437 71.0804 148.515 71.2373 148.465 71.2597C148.414 71.2821 148.269 71.142 148.297 70.789C148.314 70.5767 148.408 70.3778 148.56 70.2288C148.662 70.1284 148.783 70.0494 148.915 69.9965C149.048 69.9435 149.19 69.9177 149.333 69.9206C149.687 69.9448 150.028 70.0609 150.323 70.2575C150.617 70.454 150.856 70.7242 151.014 71.0412C151.456 71.7124 151.725 72.4821 151.798 73.2822C151.95 74.963 151.283 76.6438 150.118 77.1313C149.902 77.2235 149.667 77.2659 149.433 77.2553C149.198 77.2446 148.969 77.1811 148.762 77.0696C148.487 76.8959 148.437 76.7167 148.437 76.6998Z" fill="#89544C"/>
<path d="M152.314 79.0867C152.314 79.1203 152.544 79.1596 152.902 79.3613C153.401 79.6561 153.793 80.1013 154.023 80.6331C154.202 81.0115 154.278 81.4308 154.242 81.848C154.207 82.2653 154.061 82.6658 153.821 83.0086C153.527 83.4277 153.125 83.7584 152.657 83.9648C152.188 84.1712 151.673 84.2455 151.165 84.1795C150.705 84.0898 150.272 83.8938 149.9 83.6071C149.529 83.3204 149.23 82.951 149.026 82.5283C148.823 82.1056 148.721 81.6412 148.728 81.1721C148.736 80.703 148.853 80.2422 149.07 79.8263C149.335 79.3044 149.719 78.8517 150.19 78.5041C150.386 78.395 150.573 78.2714 150.751 78.1343C150.528 78.1697 150.315 78.2539 150.129 78.3808C149.598 78.7033 149.162 79.1592 148.863 79.703C148.628 80.1085 148.485 80.5602 148.444 81.0266C148.402 81.4931 148.463 81.963 148.622 82.4035C148.816 82.9497 149.15 83.4355 149.591 83.8129C150.031 84.1903 150.562 84.4461 151.132 84.5549C151.709 84.6326 152.297 84.5473 152.828 84.3088C153.36 84.0702 153.814 83.6878 154.14 83.2047C154.429 82.7835 154.587 82.2865 154.594 81.776C154.593 81.3379 154.49 80.9062 154.292 80.5154C154.02 79.9483 153.558 79.4943 152.986 79.2324C152.781 79.1192 152.547 79.0686 152.314 79.0867Z" fill="#455A64"/>
<path d="M121.544 91.1325C121.544 91.1044 121.634 91.1325 121.746 91.1717C121.892 91.2544 122.046 91.3238 122.205 91.379C122.5 91.4291 122.802 91.4166 123.091 91.3423C123.381 91.268 123.652 91.1335 123.886 90.9476C124.255 90.7535 124.591 90.4999 124.878 90.1968C125.206 89.8566 125.477 89.4649 125.679 89.0371C125.883 88.5921 125.94 88.0935 125.841 87.614C125.703 87.0812 125.442 86.5881 125.079 86.1741C124.34 85.2497 123.399 84.4653 122.524 84.5325C122.072 84.598 121.641 84.7667 121.264 85.0256C120.866 85.2777 120.485 85.5298 120.143 85.7595C118.793 86.6727 118.261 87.5355 118.149 87.4795C118.037 87.4235 118.149 87.1882 118.412 86.7736C118.78 86.2047 119.236 85.6979 119.762 85.2721C120.087 84.9976 120.446 84.7118 120.883 84.4261C121.342 84.0601 121.888 83.8205 122.468 83.7314C123.144 83.6904 123.813 83.8888 124.357 84.2916C124.895 84.6707 125.375 85.1276 125.78 85.6475C126.228 86.1674 126.543 86.7884 126.698 87.4571C126.821 88.1135 126.727 88.792 126.43 89.39C126.299 89.6556 126.14 89.9055 125.953 90.1352C125.78 90.3453 125.593 90.5437 125.393 90.7291C125.035 91.0629 124.619 91.3287 124.166 91.5134C123.814 91.6906 123.435 91.8116 123.046 91.872C122.788 91.9146 122.524 91.8848 122.283 91.7859C122.041 91.6869 121.832 91.5228 121.678 91.3117C121.583 91.2165 121.544 91.1549 121.544 91.1325Z" fill="#263238"/>
<path d="M152.135 94.1247C152.173 94.1176 152.213 94.1176 152.252 94.1247L152.577 94.1583C153.005 94.1862 153.434 94.1769 153.86 94.1303C155.474 93.9389 156.996 93.2763 158.236 92.2254C160.107 90.5593 161.418 88.3561 161.99 85.9168C162.393 84.4464 162.581 82.9255 162.55 81.4011C162.526 79.7213 162.081 78.0743 161.256 76.6108L161.222 76.5548L161.25 76.4932C161.835 75.2267 162.16 73.8555 162.204 72.4611C162.249 71.0667 162.013 69.6776 161.51 68.3762C161.007 67.0749 160.248 65.8879 159.278 64.8857C158.307 63.8836 157.145 63.0867 155.86 62.5426L155.642 62.4473L155.827 62.2904C156.203 61.9858 156.508 61.6036 156.723 61.1699C157.23 60.0772 157.297 58.8309 156.908 57.6906C156.518 56.5741 155.91 55.5459 155.121 54.6652C154.396 53.7749 153.513 53.0265 152.516 52.4578C151.572 51.8856 150.45 51.6858 149.367 51.8975L149.042 51.9759L149.216 51.6902C149.751 50.8249 150.015 49.8193 149.975 48.8026C149.935 47.7859 149.591 46.8044 148.989 45.9842C148.387 45.164 147.553 44.5425 146.595 44.1996C145.637 43.8566 144.599 43.8078 143.613 44.0594L143.422 44.1098L143.478 43.9193C143.773 42.884 143.815 41.793 143.601 40.7381C143.386 39.6832 142.922 38.6952 142.246 37.8572C141.948 37.509 141.608 37.2003 141.232 36.9384C140.885 36.702 140.508 36.5135 140.111 36.3781C139.404 36.1343 138.654 36.0445 137.909 36.1148C137.31 36.1689 136.725 36.3242 136.178 36.5742C135.782 36.7632 135.414 37.0065 135.086 37.297C134.824 37.5526 134.582 37.8279 134.363 38.1206C134.405 38.0384 134.454 37.9598 134.509 37.8853C134.659 37.6531 134.838 37.4405 135.041 37.2522C135.374 36.9417 135.752 36.6829 136.161 36.4846C136.713 36.2213 137.307 36.0546 137.915 35.9916C138.68 35.9047 139.454 35.987 140.184 36.2325C140.6 36.3642 140.996 36.5528 141.361 36.7927C141.751 37.0615 142.107 37.3776 142.42 37.734C143.122 38.5931 143.608 39.6086 143.836 40.6948C144.064 41.781 144.028 42.9061 143.731 43.9753L143.59 43.8353C144.623 43.5758 145.709 43.6297 146.71 43.9902C147.712 44.3507 148.583 45.0014 149.213 45.8593C149.843 46.7172 150.204 47.7434 150.248 48.8069C150.292 49.8704 150.019 50.923 149.462 51.8303L149.311 51.623C150.462 51.3892 151.659 51.5887 152.672 52.1832C153.702 52.7685 154.614 53.5398 155.362 54.4579C156.177 55.3658 156.803 56.4266 157.205 57.5786C157.621 58.7905 157.549 60.117 157.003 61.2764C156.775 61.7519 156.444 62.1709 156.034 62.5033L156 62.2568C157.321 62.8132 158.516 63.6306 159.513 64.6599C160.511 65.6893 161.29 66.9095 161.804 68.2473C162.318 69.5851 162.557 71.0129 162.506 72.4453C162.455 73.8776 162.116 75.2849 161.508 76.5828V76.4652C162.355 77.9651 162.806 79.6561 162.819 81.3787C162.844 82.9256 162.642 84.4679 162.219 85.9561C161.628 88.4329 160.276 90.6625 158.353 92.3319C157.081 93.39 155.519 94.0402 153.871 94.1976C153.441 94.239 153.008 94.239 152.577 94.1976L152.247 94.1415L152.135 94.1247Z" fill="#455A64"/>
<path d="M149.361 64.1784C149.143 58.5365 148.902 52.777 146.879 47.5049C146.492 46.2832 145.8 45.1803 144.868 44.3002C144.035 43.6775 143.081 43.2365 142.067 43.006C140.503 42.5634 140.078 41.5045 138.458 41.3868C132.296 36.1483 123.449 34.3555 115.639 36.4621C107.829 38.5687 101.178 44.4234 97.8056 51.7797C94.486 59.2669 94.2445 67.7593 97.1332 75.4229C96.6122 69.4281 100.411 63.8086 105.067 59.9932C109.722 56.1778 115.291 53.6454 120.194 50.1886C120.15 51.0228 119.927 51.8379 119.541 52.5784C119.154 53.3189 118.612 53.9676 117.953 54.4802C121.841 53.4381 125.796 52.3736 129.298 50.4351C130.087 50.005 130.849 49.5259 131.578 49.0008C131.657 49.9162 131.91 50.8081 132.324 51.6285C133.64 54.2113 136.464 55.5895 138.615 57.5337C138.895 57.7532 139.12 58.0352 139.271 58.3572C139.406 58.8892 139.368 59.4502 139.164 59.9596C138.614 61.636 138.423 63.4094 138.604 65.1645C138.867 66.9013 139.842 68.6101 141.405 69.3665C140.823 70.2833 140.541 71.3592 140.599 72.4439C140.657 73.5287 141.053 74.5682 141.73 75.4173C141.913 75.6765 142.18 75.863 142.487 75.944C142.997 76.0168 143.422 75.5742 143.714 75.1484C144.574 73.9085 145.164 72.5017 145.445 71.0193C145.487 70.3875 145.679 69.7749 146.005 69.232C146.565 68.5205 147.608 68.3748 148.297 67.7753C149.384 66.9293 149.412 65.4614 149.361 64.1784Z" fill="#263238"/>
<path d="M105.543 51.1411C105.568 50.9981 105.606 50.8576 105.655 50.7209C105.8 50.3278 105.988 49.9519 106.215 49.6004C107.033 48.2858 108.322 47.3322 109.818 46.9335L109.734 47.0344C109.821 46.2243 109.988 45.4248 110.232 44.6476C110.518 43.7779 110.893 42.9404 111.353 42.1488C112.42 40.3698 113.912 38.8836 115.695 37.8236C116.493 37.3379 117.352 36.9611 118.25 36.7031C118.694 36.5887 119.155 36.5545 119.611 36.6022C120.072 36.6502 120.498 36.8703 120.805 37.2185H120.586C121.595 35.9157 122.891 34.8631 124.373 34.1426C125.696 33.4871 127.074 33.2126 128.144 33.5319C128.562 33.6462 128.948 33.8582 129.268 34.1504C129.589 34.4426 129.835 34.8067 129.987 35.2127C130.063 35.4287 130.099 35.6564 130.094 35.8851C130.097 35.963 130.085 36.0409 130.06 36.1148C130.059 35.8178 130.004 35.5236 129.898 35.2464C129.735 34.8707 129.488 34.5374 129.177 34.2722C128.865 34.007 128.496 33.817 128.099 33.7168C127.08 33.4367 125.763 33.7168 124.48 34.3723C123.042 35.0921 121.785 36.1284 120.805 37.4034L120.698 37.5378L120.592 37.409C120.087 36.8039 119.141 36.7871 118.317 36.9944C117.448 37.2429 116.615 37.6046 115.841 38.0701C114.101 39.1095 112.641 40.5576 111.588 42.2889C111.13 43.0598 110.755 43.8767 110.468 44.7261C110.219 45.4844 110.045 46.2649 109.947 47.0568V47.1184H109.874C108.418 47.4885 107.15 48.3846 106.316 49.634C106.015 50.113 105.757 50.6173 105.543 51.1411Z" fill="#455A64"/>
<path d="M95.4301 101.256L95.29 101.469L94.8418 102.102L94.8082 102.147V102.091C94.2115 100.284 93.9107 98.3919 93.9174 96.4885C93.9169 93.1097 94.8348 89.7942 96.573 86.8968L96.6234 87.0536C95.5263 86.5353 94.5972 85.7188 93.9423 84.6973C93.2874 83.6758 92.9332 82.4906 92.9201 81.2773C92.9037 80.6173 93.0023 79.9594 93.2114 79.3332C93.3285 79.0356 93.4185 78.7281 93.4804 78.4144C93.4996 78.2662 93.487 78.1156 93.4435 77.9726C93.4001 77.8297 93.3267 77.6976 93.2282 77.5852C93.0049 77.3411 92.7633 77.1145 92.5055 76.9072C92.2452 76.6769 91.9983 76.4318 91.7659 76.1733C91.2953 75.6452 90.8822 75.0686 90.5334 74.4533C89.6066 72.8009 89.1937 70.9098 89.3474 69.0215C89.5011 67.1333 90.2144 65.3338 91.3962 63.853C91.64 63.5429 91.9039 63.2491 92.1861 62.9734C92.4663 62.7045 92.7464 62.4412 92.7464 62.1106C92.6879 61.739 92.5844 61.3759 92.4383 61.0293C92.3063 60.6502 92.1997 60.2628 92.1189 59.8696C91.9469 59.0764 91.8642 58.2664 91.8724 57.4548C91.8686 55.7423 92.2375 54.0495 92.9534 52.4938C93.6694 50.9381 94.7152 49.5568 96.0184 48.4457C96.6459 47.9135 97.3518 47.4933 97.6599 46.7649C97.8102 46.4035 97.9246 46.0282 98.0017 45.6444C98.1025 45.2578 98.2314 44.8769 98.3435 44.4959C98.8644 43.0286 99.6613 41.6746 100.691 40.5068C102.591 38.3221 105.145 36.8091 107.974 36.1927C109.248 35.939 110.553 35.8748 111.846 36.0022C112.133 36.0268 112.422 35.9726 112.681 35.8454C112.916 35.6819 113.134 35.4941 113.331 35.2851L113.98 34.6744L114.658 34.1141C115.527 33.4607 116.467 32.9081 117.46 32.467C118.349 32.0824 119.274 31.7859 120.222 31.5817C121.736 31.2449 123.296 31.1597 124.838 31.3296C125.816 31.4444 126.778 31.6661 127.707 31.9907L128.413 32.2709L128.654 32.3773L128.402 32.2989L127.69 32.0468C126.76 31.7662 125.805 31.5785 124.838 31.4865C123.308 31.3396 121.765 31.4399 120.267 31.7834C119.335 31.9955 118.425 32.2957 117.549 32.6799C116.572 33.1228 115.648 33.6734 114.793 34.3214L114.132 34.8817L113.493 35.4868C113.286 35.7171 113.053 35.922 112.798 36.0975C112.507 36.2481 112.179 36.3141 111.851 36.288C111.532 36.288 111.224 36.2432 110.91 36.2432C110.597 36.2235 110.282 36.2235 109.969 36.2432C109.319 36.2763 108.673 36.3587 108.036 36.4897C105.269 37.1097 102.773 38.6 100.915 40.7421C99.9086 41.8907 99.1326 43.2222 98.6292 44.6639C98.5227 45.0337 98.3939 45.4035 98.2986 45.7845C98.216 46.1833 98.0959 46.5735 97.9401 46.9498C97.5871 47.7566 96.8195 48.2048 96.2201 48.7203C94.9525 49.8059 93.9355 51.1534 93.239 52.6701C92.5426 54.1867 92.1834 55.8363 92.1861 57.5052C92.1788 58.2961 92.2596 59.0854 92.4271 59.8584C92.5072 60.2383 92.612 60.6126 92.7408 60.9789C92.9013 61.3563 93.0088 61.7541 93.0602 62.1611C93.0242 62.3728 92.9468 62.5753 92.8324 62.757C92.718 62.9387 92.5688 63.0961 92.3934 63.22C92.1216 63.489 91.8653 63.7733 91.6259 64.0715C90.2627 65.7856 89.5498 67.9267 89.6134 70.1159C89.6769 72.305 90.5129 74.4011 91.9732 76.0332C92.1962 76.286 92.4338 76.5255 92.6848 76.7504C92.9553 76.9653 93.2065 77.2033 93.4355 77.4619C93.5561 77.6015 93.6459 77.765 93.699 77.9417C93.7521 78.1183 93.7673 78.3042 93.7437 78.4872C93.6811 78.819 93.5854 79.1437 93.4579 79.4564C93.2591 80.0541 93.1625 80.6811 93.1722 81.3109C93.1781 82.4828 93.5132 83.6294 94.1392 84.62C94.7653 85.6106 95.6571 86.4054 96.7131 86.9136L96.8251 86.964L96.7635 87.0705C95.8018 88.6334 95.0839 90.3337 94.6345 92.1128C93.7884 95.4222 93.8639 98.9001 94.853 102.17H94.8026L95.2676 101.553C95.315 101.451 95.3693 101.352 95.4301 101.256Z" fill="#455A64"/>
<path d="M145.378 27.2457C144.499 27.1336 143.614 27.0718 142.728 27.0608C141.777 27.0765 140.841 27.3022 139.988 27.7219C138.944 28.2289 138.14 29.1236 137.747 30.2151C137.685 30.4127 137.64 30.6151 137.612 30.8202V30.9546H137.484C136.394 30.9122 135.308 31.1152 134.307 31.5485C133.502 31.9064 132.808 32.4732 132.296 33.1901C131.951 33.6703 131.707 34.2154 131.578 34.7925C131.494 35.2015 131.489 35.4368 131.466 35.4368C131.444 35.4368 131.466 35.3808 131.466 35.2687C131.461 35.1039 131.471 34.9389 131.494 34.7757C131.587 34.1731 131.813 33.5989 132.156 33.0949C132.669 32.3292 133.382 31.7188 134.217 31.33C135.252 30.8589 136.382 30.6363 137.517 30.6801L137.366 30.809C137.394 30.5864 137.442 30.3669 137.512 30.1535C137.918 28.9972 138.764 28.0473 139.865 27.509C140.759 27.085 141.738 26.8704 142.728 26.8815C143.385 26.8835 144.04 26.9511 144.683 27.0832C144.92 27.1086 145.154 27.1632 145.378 27.2457Z" fill="#455A64"/>
<path d="M122.228 151.585L163.911 150.157L167.777 207.08L131.304 207.59L122.228 151.585Z" fill="#E0E0E0"/>
<path d="M154.667 109.308C155.227 108.596 186.316 129.685 187.723 132.206C189.129 134.727 196.62 207.595 196.62 207.595H156.006C156.006 207.595 152.275 147.58 152.471 142.044C152.667 136.509 154.667 109.308 154.667 109.308Z" fill="#FF8080"/>
<path d="M60.9234 207.914C60.9234 207.914 56.3404 198.485 56.8503 193.908C57.3601 189.33 60.9234 180.148 60.9234 180.148L70.0949 163.844C70.0949 163.844 71.9326 150.257 72.9467 147.708C73.9608 145.159 79.3337 127.925 85.6871 123.874C92.0405 119.824 111.359 117.045 111.359 117.045L119.914 110.691C119.914 110.691 128.424 135.819 129.696 142.699C130.968 149.579 138.1 207.914 138.1 207.914H60.9234Z" fill="#FF8080"/>
<path d="M132.441 164.085C132.404 164.048 132.372 164.007 132.346 163.961L132.083 163.597L131.108 162.163L127.567 156.874C126.077 154.633 124.312 151.961 122.345 149.03L119.275 144.38C118.222 142.772 117.079 141.019 116.692 138.957C116.488 137.718 116.558 136.45 116.899 135.242C117.214 134.096 117.607 132.973 118.076 131.881L118.25 132.066L112.647 134.015L112.49 134.066V133.898C112.115 129.018 111.801 124.905 111.577 121.986C111.476 120.552 111.398 119.415 111.342 118.625C111.342 118.249 111.302 117.958 111.291 117.734C111.283 117.631 111.283 117.528 111.291 117.426C111.315 117.525 111.33 117.626 111.336 117.728C111.336 117.952 111.392 118.244 111.431 118.619C111.504 119.42 111.605 120.558 111.739 121.981C111.986 124.894 112.339 129.006 112.753 133.886L112.58 133.774L118.182 131.802L118.474 131.701L118.362 131.993C117.898 133.072 117.511 134.182 117.202 135.315C116.872 136.483 116.803 137.709 117 138.906C117.37 140.901 118.491 142.615 119.533 144.223C120.575 145.831 121.617 147.394 122.592 148.885L127.763 156.784L131.225 162.129L132.155 163.592L132.391 163.973C132.419 164.034 132.447 164.079 132.441 164.085Z" fill="#263238"/>
<path d="M103.139 206.688C103.111 206.633 103.092 206.574 103.083 206.514L102.949 205.998C102.837 205.522 102.68 204.878 102.473 204.004C102.075 202.256 101.503 199.751 100.792 196.664C99.4248 190.44 97.5423 181.873 95.4581 172.41L90.1692 148.14C89.4857 145.047 88.9366 142.537 88.5501 140.789C88.367 139.934 88.2214 139.267 88.1131 138.789C88.0682 138.57 88.0346 138.397 88.0066 138.268C87.9976 138.207 87.9976 138.144 88.0066 138.083C88.0066 138.083 88.0066 138.145 88.057 138.257C88.1074 138.369 88.1411 138.559 88.1915 138.772C88.3091 139.248 88.4772 139.893 88.6845 140.761C89.0991 142.492 89.6874 144.997 90.3653 148.095C91.7772 154.292 93.6709 162.869 95.7327 172.349C97.7944 181.829 99.6545 190.395 100.982 196.62C101.643 199.718 102.187 202.222 102.562 203.981C102.742 204.839 102.887 205.505 102.988 205.982C103.027 206.2 103.061 206.374 103.089 206.508C103.117 206.643 103.139 206.688 103.139 206.688Z" fill="#263238"/>
<g opacity="0.3">
<path opacity="0.3" d="M99.4529 207.079C103.573 204.637 108.202 203.18 112.978 202.821C116.647 202.552 120.435 202.928 123.936 201.791C127.858 200.519 130.945 197.516 133.876 194.602C134.739 193.868 135.416 192.941 135.853 191.896C136.206 190.826 135.909 189.453 134.906 188.938C134.133 188.54 133.198 188.748 132.357 188.983C119.997 192.4 108.538 198.492 98.7917 206.827" fill="black"/>
</g>
<path d="M88.5949 186.064C88.5949 186.064 88.3708 185.75 87.9842 185.173C87.4331 184.368 86.8285 183.6 86.1746 182.876C84.0312 180.458 81.3417 178.587 78.3297 177.418C75.3177 176.248 72.0701 175.815 68.8568 176.153C67.8852 176.248 66.9212 176.409 65.9714 176.635C65.6249 176.735 65.2733 176.817 64.9181 176.881C64.9997 176.832 65.0885 176.796 65.1814 176.775C65.3551 176.713 65.6072 176.618 65.9434 176.528C66.8897 176.261 67.8568 176.074 68.8344 175.968C72.083 175.57 75.3798 175.979 78.4321 177.161C81.4844 178.343 84.1977 180.26 86.3314 182.741C86.9774 183.485 87.562 184.279 88.0795 185.117C88.27 185.414 88.3876 185.677 88.4773 185.812C88.5669 185.946 88.6061 186.064 88.5949 186.064Z" fill="#263238"/>
<path d="M93.0545 183.851C93.0545 183.851 92.9985 183.767 92.9201 183.593L92.6007 182.831C92.4662 182.501 92.3038 182.097 92.074 181.644C91.8443 181.19 91.6258 180.658 91.3009 180.103L90.8191 179.223C90.651 178.921 90.4493 178.618 90.2588 178.299C89.8778 177.649 89.396 177.005 88.9142 176.316C86.7281 173.371 84.034 170.84 80.9584 168.842C80.2412 168.393 79.5689 167.956 78.9022 167.62C78.5717 167.441 78.2579 167.256 77.9441 167.105L77.0365 166.679C76.4763 166.393 75.916 166.197 75.451 166.007C75.0523 165.834 74.6446 165.682 74.2296 165.553L73.4508 165.278C73.3577 165.252 73.2689 165.213 73.1875 165.161C73.2829 165.171 73.3768 165.191 73.4676 165.222L74.2632 165.441C74.6846 165.556 75.0997 165.692 75.507 165.85C75.9832 166.035 76.5379 166.214 77.1206 166.494L78.0394 166.903C78.3588 167.049 78.6781 167.234 79.0143 167.402C79.6978 167.738 80.3757 168.175 81.1041 168.612C82.6544 169.617 84.1146 170.755 85.4685 172.013C86.8066 173.285 88.0307 174.673 89.1271 176.159C89.6145 176.859 90.0851 177.515 90.4661 178.17C90.6566 178.495 90.8583 178.803 91.0264 179.111L91.497 180.008C91.8107 180.568 92.0236 181.128 92.2309 181.576C92.4156 181.972 92.5783 182.378 92.7184 182.792L92.9873 183.571C93.0192 183.662 93.0417 183.756 93.0545 183.851Z" fill="#263238"/>
<path d="M177.767 156.818C177.774 156.859 177.774 156.9 177.767 156.941L177.688 157.317C177.61 157.664 177.504 158.135 177.363 158.734C177.078 159.961 176.658 161.743 176.181 163.95C174.89 169.687 174.153 175.535 173.979 181.414C173.895 184.646 174.125 187.879 174.669 191.067C175.103 193.672 175.8 196.227 176.747 198.692C177.387 200.352 178.153 201.961 179.039 203.505C179.347 204.065 179.627 204.463 179.789 204.749L179.985 205.074C180.008 205.111 180.027 205.15 180.042 205.191C180.042 205.191 180.008 205.163 179.957 205.09L179.739 204.782C179.56 204.502 179.263 204.11 178.943 203.561C178.014 202.032 177.216 200.428 176.557 198.765C175.57 196.294 174.843 193.728 174.388 191.106C173.821 187.906 173.573 184.657 173.649 181.408C173.819 175.511 174.587 169.647 175.94 163.905C176.439 161.698 176.893 159.927 177.212 158.706C177.375 158.112 177.504 157.647 177.593 157.3C177.638 157.154 177.672 157.036 177.7 156.936L177.767 156.818Z" fill="#263238"/>
<path d="M173.839 180.562C173.826 180.421 173.826 180.278 173.839 180.137C173.869 179.834 173.903 179.431 173.94 178.926C173.996 178.405 174.041 177.761 174.097 177.016C174.153 176.271 174.215 175.419 174.271 174.478C174.506 170.719 174.668 165.514 174.629 159.765C174.59 154.017 174.36 148.812 174.119 145.053C174.007 143.17 173.89 141.652 173.806 140.599C173.772 140.094 173.744 139.697 173.722 139.388C173.704 139.247 173.704 139.104 173.722 138.963C173.754 139.101 173.777 139.241 173.789 139.383C173.822 139.685 173.873 140.089 173.934 140.587C174.047 141.635 174.198 143.159 174.338 145.036C174.629 148.795 174.898 154 174.932 159.765C174.965 165.53 174.775 170.73 174.484 174.489C174.422 175.43 174.349 176.282 174.271 177.027C174.192 177.772 174.136 178.417 174.069 178.938C174.002 179.459 173.951 179.84 173.912 180.142C173.897 180.284 173.872 180.424 173.839 180.562Z" fill="#263238"/>
<path d="M162.203 127.953C162.186 128.115 162.147 128.273 162.085 128.424C161.91 128.857 161.633 129.241 161.278 129.544C160.718 130.033 160.037 130.362 159.306 130.497C158.346 130.662 157.369 130.706 156.398 130.626L156.426 130.424L160.186 131.354H160.292V131.455C159.928 135.141 159.39 139.556 158.611 144.268C157.564 150.739 156.269 156.538 155.25 160.706C154.723 162.785 154.269 164.466 153.939 165.62C153.776 166.18 153.647 166.617 153.546 166.942C153.505 167.098 153.455 167.251 153.395 167.401C153.412 167.242 153.444 167.084 153.49 166.931C153.574 166.595 153.686 166.152 153.832 165.586C154.123 164.426 154.549 162.74 155.054 160.656C156.04 156.482 157.295 150.683 158.348 144.223C159.082 139.562 159.642 135.136 160.034 131.46L160.13 131.589L156.376 130.62L156.409 130.418C157.363 130.508 158.325 130.482 159.272 130.34C159.982 130.22 160.649 129.917 161.205 129.46C161.558 129.176 161.84 128.813 162.029 128.401C162.158 128.116 162.186 127.953 162.203 127.953Z" fill="#263238"/>
<g opacity="0.3">
<path opacity="0.3" d="M89.5081 145.064C88.9408 144.248 88.2399 143.534 87.4351 142.952C87.1598 142.712 86.8137 142.568 86.4494 142.542C86.085 142.516 85.7221 142.61 85.4157 142.809C85.1092 143.007 84.8759 143.301 84.751 143.644C84.6261 143.987 84.6164 144.362 84.7234 144.711C84.8685 145.334 85.1166 145.929 85.4573 146.47C89.0385 153.056 91.4104 160.231 92.4607 167.654C92.9089 170.825 93.1106 174.041 93.7941 177.178C94.4776 180.316 95.1836 182.686 97.363 185.022L98.2594 184.641C98.1588 183.799 98.0129 182.963 97.8224 182.137C94.9034 169.962 92.3486 157.816 89.5081 145.064Z" fill="black"/>
</g>
<g opacity="0.3">
<path opacity="0.3" d="M88.9703 186.187C88.5837 183.274 86.7292 180.702 84.3817 178.904C82.0342 177.105 79.2328 176.103 76.4203 175.229C74.9184 174.706 73.338 174.444 71.7477 174.455C70.1621 174.545 67.1927 175.223 66.2627 176.512C76.7565 174.035 84.3817 178.904 88.5725 186.406" fill="black"/>
</g>
<g opacity="0.3">
<path opacity="0.3" d="M174.209 148.56C173.413 157.188 171.094 165.608 170.063 174.209C169.032 182.809 169.43 191.958 173.649 199.51C175.072 202.048 177.083 204.48 179.873 205.326C176.551 201.337 174.915 196.171 174.315 191.011C173.716 185.851 174.063 180.646 174.315 175.458C174.708 166.494 174.723 157.529 174.36 148.565" fill="black"/>
</g>
<path d="M90.8079 151.104C90.5878 151.224 90.3571 151.323 90.1188 151.401C89.4785 151.641 88.8258 151.847 88.1635 152.017C87.1822 152.264 86.1869 152.451 85.1829 152.577C83.9493 152.734 82.7062 152.806 81.4627 152.79C80.2198 152.757 78.9806 152.639 77.7537 152.437C76.7533 152.269 75.765 152.035 74.7955 151.737C74.1407 151.543 73.4972 151.313 72.8682 151.048C72.6333 150.961 72.4065 150.854 72.1903 150.728C72.437 150.771 72.6777 150.842 72.9074 150.941C73.3613 151.104 74.028 151.317 74.8516 151.541C75.8221 151.803 76.8058 152.014 77.7986 152.174C80.2312 152.553 82.704 152.6 85.1492 152.314C86.1461 152.195 87.1356 152.021 88.1131 151.793C88.9479 151.597 89.6202 151.412 90.0796 151.266C90.315 151.183 90.5595 151.128 90.8079 151.104Z" fill="white"/>
<path d="M119.398 145.081C118.708 145.662 117.956 146.167 117.157 146.588C113.444 148.6 109.12 149.175 105.011 148.201C103.101 147.734 101.29 146.927 99.6657 145.82C97.8652 144.6 96.3057 143.058 95.066 141.271C94.4167 140.323 93.8631 139.314 93.4132 138.257C92.9322 137.172 92.6059 136.025 92.4439 134.85C92.2653 133.664 92.3631 132.452 92.7296 131.309C92.9104 130.747 93.2017 130.227 93.5866 129.78C93.9715 129.333 94.4422 128.967 94.9707 128.704C96.0153 128.239 97.192 128.164 98.2875 128.491C99.3399 128.781 100.271 129.402 100.943 130.262C101.551 131.084 101.937 132.049 102.064 133.063C102.188 134.021 102.118 134.995 101.856 135.926C101.346 137.58 100.353 139.043 99.0046 140.128C97.9117 141.024 96.6797 141.736 95.3573 142.234C94.3645 142.607 93.3458 142.907 92.3094 143.131C91.4578 143.316 90.7855 143.428 90.3373 143.495L89.8163 143.574C89.7585 143.58 89.7003 143.58 89.6426 143.574L89.8163 143.529L90.3261 143.428C90.7743 143.338 91.4466 143.209 92.2814 143.008C93.3075 142.767 94.3148 142.452 95.2957 142.066C96.5945 141.565 97.8021 140.853 98.8702 139.96C100.175 138.892 101.133 137.461 101.621 135.847C101.869 134.951 101.932 134.013 101.806 133.091C101.684 132.114 101.308 131.187 100.713 130.402C100.078 129.582 99.1929 128.992 98.1922 128.721C97.1633 128.413 96.0578 128.484 95.0772 128.923C94.5834 129.17 94.1441 129.513 93.7851 129.933C93.4262 130.352 93.155 130.839 92.9874 131.365C92.6346 132.464 92.5406 133.63 92.7128 134.772C92.8716 135.931 93.1922 137.063 93.6653 138.133C94.9532 141.162 97.0945 143.751 99.8282 145.585C101.425 146.682 103.204 147.484 105.083 147.955C106.723 148.354 108.413 148.507 110.098 148.409C112.548 148.266 114.94 147.608 117.118 146.476C117.462 146.308 117.797 146.121 118.121 145.915C118.407 145.747 118.648 145.596 118.832 145.462L119.264 145.17L119.398 145.081Z" fill="white"/>
<path d="M123.55 122.95C123.55 123 122.838 123.056 121.701 123.269C120.222 123.546 118.78 123.991 117.404 124.597C116.028 125.208 114.726 125.971 113.521 126.872C112.597 127.567 112.076 128.06 112.036 127.992C112.132 127.852 112.245 127.724 112.373 127.611C112.694 127.279 113.036 126.969 113.398 126.681C114.581 125.717 115.889 124.916 117.286 124.3C118.684 123.687 120.158 123.261 121.667 123.034C122.124 122.966 122.584 122.923 123.046 122.905C123.215 122.895 123.385 122.91 123.55 122.95Z" fill="white"/>
<path d="M132.749 166.6L132.553 166.522L131.993 166.275C131.266 165.973 130.517 165.727 129.752 165.541C126.954 164.88 124.029 164.987 121.286 165.849C119.394 166.424 117.623 167.339 116.059 168.55C114.26 169.933 112.713 171.616 111.487 173.525C110.124 175.628 109.128 177.947 108.54 180.383C108.2 181.651 108.214 182.988 108.58 184.249C108.811 184.873 109.192 185.431 109.688 185.875C110.183 186.319 110.78 186.636 111.426 186.798C112.728 187.158 114.108 187.127 115.392 186.708C116.644 186.307 117.777 185.601 118.687 184.652C119.569 183.746 120.135 182.578 120.3 181.324C120.366 180.72 120.325 180.109 120.177 179.52C120.019 178.945 119.779 178.396 119.465 177.89C118.829 176.924 118.004 176.097 117.04 175.458C116.129 174.847 115.137 174.368 114.093 174.035C113.116 173.721 112.113 173.497 111.095 173.368C110.154 173.261 109.206 173.231 108.26 173.279C105.39 173.415 102.602 174.274 100.153 175.777C99.4878 176.186 98.8531 176.643 98.2538 177.144L97.7888 177.537L97.6263 177.66C97.6697 177.608 97.7165 177.559 97.7664 177.514L98.2146 177.1C98.8007 176.577 99.4284 176.103 100.092 175.682C102.544 174.127 105.355 173.228 108.255 173.071C109.211 173.015 110.171 173.04 111.123 173.144C112.156 173.268 113.174 173.489 114.165 173.805C115.234 174.138 116.249 174.623 117.18 175.245C118.18 175.898 119.036 176.748 119.695 177.744C120.026 178.274 120.277 178.85 120.44 179.453C120.599 180.074 120.647 180.719 120.58 181.358C120.41 182.671 119.821 183.895 118.9 184.848C117.958 185.834 116.785 186.569 115.488 186.988C114.146 187.424 112.706 187.455 111.347 187.078C110.658 186.901 110.022 186.56 109.493 186.084C108.964 185.608 108.559 185.011 108.311 184.344C107.927 183.032 107.911 181.641 108.266 180.321C108.864 177.853 109.88 175.505 111.269 173.379C112.515 171.442 114.088 169.736 115.919 168.337C117.508 167.116 119.308 166.198 121.23 165.631C124.008 164.772 126.968 164.696 129.786 165.412C130.555 165.607 131.305 165.871 132.027 166.202L132.587 166.477L132.749 166.6Z" fill="white"/>
<path d="M81.642 168.813C81.642 168.869 81.0089 168.948 80.0452 169.284C79.4831 169.483 78.9394 169.73 78.4205 170.024C77.146 170.741 76.04 171.723 75.1765 172.903C74.8286 173.387 74.5213 173.899 74.2577 174.433C73.8095 175.352 73.6582 175.974 73.6022 175.957C73.602 175.804 73.6266 175.653 73.675 175.509C73.7699 175.109 73.9011 174.719 74.0672 174.343C74.3118 173.783 74.6101 173.249 74.958 172.747C75.3949 172.134 75.8964 171.571 76.4539 171.066C77.0193 170.584 77.6355 170.165 78.2916 169.816C78.8254 169.524 79.3889 169.289 79.9724 169.116C80.3648 168.993 80.7682 168.909 81.177 168.864C81.3283 168.822 81.4853 168.805 81.642 168.813Z" fill="white"/>
<path d="M100.529 197.538C100.529 197.538 100.478 197.499 100.388 197.409C100.299 197.32 100.164 197.168 100.002 197C99.6657 196.642 99.1671 196.11 98.506 195.454C96.6724 193.559 94.6008 191.909 92.343 190.546C90.783 189.619 89.0927 188.932 87.3286 188.507C85.3063 188.033 83.2075 187.986 81.1657 188.367C78.9013 188.784 76.8333 189.924 75.2717 191.616C74.4636 192.506 73.9423 193.619 73.7758 194.81C73.6896 195.415 73.7318 196.032 73.8998 196.62C74.0678 197.207 74.3577 197.753 74.7507 198.222C75.1565 198.673 75.6744 199.009 76.2519 199.196C76.8294 199.383 77.4461 199.414 78.0394 199.286C78.6122 199.144 79.1233 198.819 79.4961 198.362C79.8648 197.906 80.1185 197.368 80.2357 196.793C80.4612 195.656 80.2619 194.476 79.6754 193.476C79.1217 192.509 78.3362 191.695 77.3895 191.106C75.5944 190.049 73.5039 189.605 71.4339 189.84C69.6257 190.009 67.8444 190.395 66.1282 190.989C63.6246 191.818 61.2472 192.989 59.0632 194.468C58.2901 194.995 57.7186 195.437 57.3264 195.74L56.8894 196.087C56.7886 196.166 56.7381 196.205 56.7325 196.199C57.4313 195.535 58.1805 194.926 58.9736 194.378C61.1573 192.848 63.5499 191.641 66.0778 190.793C67.8069 190.181 69.6033 189.781 71.4283 189.599C73.5523 189.35 75.6998 189.798 77.5464 190.877C78.5328 191.487 79.3528 192.332 79.9331 193.336C80.5573 194.396 80.7688 195.649 80.527 196.855C80.4048 197.471 80.1336 198.048 79.7371 198.536C79.3233 199.041 78.7573 199.398 78.1235 199.555C77.4793 199.697 76.809 199.666 76.181 199.464C75.553 199.262 74.9898 198.897 74.549 198.407C74.1301 197.906 73.8209 197.324 73.6414 196.696C73.4618 196.069 73.416 195.411 73.5069 194.765C73.6781 193.512 74.225 192.34 75.0756 191.403C76.6772 189.667 78.8017 188.5 81.1265 188.081C83.2107 187.698 85.3519 187.756 87.4127 188.249C89.1887 188.692 90.8884 189.398 92.4551 190.344C94.7226 191.731 96.7952 193.413 98.618 195.348C99.2679 196.026 99.7385 196.569 100.075 196.939L100.439 197.365L100.529 197.538Z" fill="white"/>
<path d="M173.974 181.716C173.86 181.815 173.736 181.901 173.604 181.974C173.481 182.052 173.329 182.153 173.145 182.26L172.483 182.59C172.231 182.713 171.923 182.814 171.621 182.943C171.318 183.072 170.943 183.15 170.562 183.257C169.683 183.457 168.785 183.563 167.884 183.571C165.515 183.574 163.203 182.848 161.261 181.492C160.078 180.724 159.147 179.625 158.583 178.332C158.324 177.608 158.324 176.816 158.583 176.091C158.723 175.721 158.949 175.39 159.241 175.123C159.532 174.856 159.883 174.662 160.264 174.556C161.008 174.384 161.783 174.39 162.524 174.575C163.265 174.76 163.952 175.119 164.528 175.621C165.089 176.073 165.54 176.648 165.844 177.301C166.134 177.944 166.224 178.658 166.102 179.352C165.974 180.002 165.694 180.613 165.284 181.134C164.905 181.618 164.464 182.051 163.973 182.422C163.102 183.072 162.163 183.624 161.172 184.069C159.735 184.72 158.212 185.159 156.65 185.375C156.09 185.448 155.664 185.481 155.373 185.492C155.224 185.507 155.074 185.507 154.925 185.492C155.07 185.461 155.218 185.442 155.367 185.436C155.659 185.403 156.084 185.352 156.628 185.263C158.178 185.009 159.686 184.545 161.11 183.884C162.086 183.435 163.011 182.881 163.867 182.232C164.871 181.534 165.588 180.494 165.883 179.307C165.967 178.646 165.873 177.975 165.611 177.362C165.349 176.75 164.929 176.218 164.393 175.822C163.852 175.352 163.208 175.016 162.513 174.842C161.818 174.668 161.092 174.66 160.393 174.819C160.052 174.912 159.738 175.083 159.476 175.32C159.214 175.556 159.012 175.851 158.886 176.181C158.648 176.838 158.648 177.558 158.886 178.215C159.351 179.531 160.432 180.484 161.452 181.251C163.343 182.588 165.596 183.317 167.912 183.341C168.798 183.345 169.682 183.257 170.55 183.078C170.931 182.977 171.284 182.893 171.604 182.786C171.923 182.68 172.214 182.579 172.467 182.467L173.133 182.159C173.324 182.064 173.475 181.968 173.604 181.901C173.723 181.832 173.847 181.77 173.974 181.716Z" fill="white"/>
<path d="M157.799 143.153C156.812 143.416 155.844 143.746 154.902 144.139C154.003 144.616 153.138 145.155 152.314 145.753C152.96 144.925 153.809 144.279 154.779 143.876C155.709 143.385 156.747 143.136 157.799 143.153Z" fill="white"/>
<path d="M129.606 143.282C129.529 143.735 129.38 144.172 129.164 144.577C128.692 145.579 128.058 146.497 127.287 147.294C126.516 148.091 125.621 148.757 124.637 149.266C124.237 149.493 123.804 149.656 123.354 149.748C124.721 149.053 125.977 148.158 127.08 147.092C128.109 145.957 128.961 144.672 129.606 143.282Z" fill="white"/>
<path d="M166.169 116.849C166.169 116.849 165.771 116.922 165.049 117.101C164.049 117.357 163.079 117.713 162.152 118.166C161.511 118.47 160.894 118.82 160.303 119.213C159.627 119.654 159.036 120.214 158.561 120.866C158.049 121.586 157.789 122.454 157.821 123.337C157.846 123.795 157.979 124.24 158.208 124.637C158.459 125.033 158.819 125.348 159.244 125.544C159.664 125.75 160.138 125.823 160.6 125.752C161.049 125.683 161.452 125.439 161.721 125.074C161.953 124.712 162.083 124.294 162.098 123.864C162.113 123.434 162.012 123.008 161.805 122.631C161.608 122.291 161.341 121.995 161.023 121.765C160.704 121.534 160.341 121.373 159.956 121.292C159.275 121.132 158.565 121.142 157.888 121.32C156.905 121.617 155.989 122.104 155.194 122.754C154.633 123.197 154.308 123.466 154.292 123.449C154.275 123.432 154.353 123.365 154.493 123.231C154.633 123.096 154.841 122.9 155.121 122.67C155.905 121.97 156.83 121.445 157.832 121.13C158.542 120.926 159.291 120.903 160.012 121.062C160.435 121.146 160.835 121.318 161.185 121.569C161.536 121.819 161.829 122.141 162.046 122.513C162.278 122.935 162.392 123.412 162.375 123.894C162.359 124.375 162.212 124.843 161.95 125.248C161.645 125.672 161.183 125.958 160.667 126.043C160.146 126.125 159.612 126.044 159.138 125.813C158.66 125.594 158.257 125.239 157.978 124.794C157.724 124.356 157.578 123.865 157.552 123.359C157.52 122.413 157.804 121.483 158.359 120.715C158.859 120.047 159.478 119.477 160.186 119.034C160.792 118.643 161.427 118.296 162.085 117.998C163.03 117.558 164.023 117.227 165.043 117.012C165.402 116.939 165.687 116.905 165.878 116.883C165.973 116.858 166.071 116.847 166.169 116.849Z" fill="white"/>
<path d="M173.481 151.193C173.391 151.325 173.294 151.452 173.189 151.574C173.089 151.691 172.943 151.815 172.78 151.977C172.575 152.141 172.358 152.289 172.131 152.42C171.39 152.823 170.572 153.066 169.731 153.131C168.89 153.197 168.045 153.084 167.251 152.801C166.141 152.423 165.156 151.751 164.399 150.857C163.535 149.835 162.905 148.639 162.55 147.349C162.145 145.932 161.995 144.454 162.107 142.985C162.177 141.387 162.735 139.848 163.704 138.576C164.215 137.949 164.872 137.458 165.618 137.146C166.363 136.835 167.174 136.712 167.979 136.788C168.753 136.88 169.473 137.229 170.024 137.78C170.563 138.308 170.874 139.026 170.892 139.78C170.875 140.498 170.582 141.182 170.074 141.691C169.616 142.166 169.055 142.528 168.433 142.749C167.325 143.134 166.135 143.211 164.987 142.974C164.049 142.786 163.145 142.46 162.303 142.004C161.671 141.67 161.061 141.296 160.477 140.884C159.995 140.542 159.631 140.268 159.39 140.077C159.261 139.986 159.139 139.885 159.026 139.774C159.166 139.847 159.3 139.934 159.424 140.032L160.544 140.789C161.136 141.182 161.749 141.541 162.382 141.864C163.214 142.296 164.105 142.603 165.026 142.778C166.138 142.994 167.287 142.908 168.354 142.531C168.938 142.319 169.463 141.974 169.889 141.523C170.348 141.059 170.613 140.438 170.629 139.786C170.607 139.102 170.322 138.454 169.833 137.976C169.322 137.474 168.658 137.156 167.945 137.074C167.191 137.007 166.432 137.125 165.734 137.418C165.036 137.711 164.42 138.17 163.939 138.755C163.005 139.98 162.468 141.462 162.399 143.002C162.283 144.438 162.424 145.883 162.813 147.271C163.156 148.525 163.761 149.692 164.589 150.694C165.311 151.565 166.256 152.224 167.323 152.599C168.093 152.882 168.912 153.004 169.731 152.955C170.549 152.907 171.349 152.69 172.08 152.319C172.606 152.023 173.079 151.643 173.481 151.193Z" fill="white"/>
<path d="M189.207 147.159C189.207 147.221 188.249 146.879 186.664 146.762C184.593 146.603 182.518 146.996 180.648 147.899C178.779 148.802 177.181 150.184 176.019 151.905C175.553 152.626 175.13 153.375 174.752 154.146C174.791 153.915 174.863 153.69 174.965 153.479C175.206 152.893 175.5 152.33 175.845 151.798C176.984 150.006 178.601 148.566 180.512 147.64C182.424 146.715 184.556 146.341 186.669 146.56C187.303 146.621 187.93 146.743 188.541 146.924C188.771 146.977 188.995 147.056 189.207 147.159Z" fill="white"/>
<g opacity="0.3">
<path opacity="0.3" d="M154.14 115.521C160.46 118.603 168.147 118.782 173.778 122.962C177.052 125.392 179.309 128.949 180.113 132.947C180.917 136.944 180.211 141.098 178.131 144.605C177.722 141.041 177.01 136.996 173.996 135.08C172.674 134.245 171.094 133.96 169.626 133.399C167.973 132.794 166.449 131.864 164.774 131.332C162.533 130.615 160.057 130.643 157.804 129.898C155.552 129.153 153.362 127.231 153.53 124.855L154.14 115.521Z" fill="black"/>
</g>
<path d="M178.064 143.629L177.167 132.362C177.167 132.362 171.055 131.18 168.887 129.802C166.718 128.424 162.752 125.555 162.752 125.555C162.752 125.555 161.794 128.995 159.821 129.191L158.045 129.393L157.961 122.457C157.961 122.457 157.625 125.572 155.065 126.054C154.505 126.166 154.477 126.054 154.477 126.054L152.745 116.972C152.745 116.972 150.695 119.628 146.947 117.857C146.947 117.857 153.02 107.268 154.202 106.876C155.384 106.484 161.771 106.316 161.771 106.316C161.771 106.316 170.64 105.755 171.626 106.136C172.612 106.517 173.991 108.086 173.991 108.086C173.991 108.086 184.44 118.143 187.79 121.493C190.432 124.281 192.212 127.774 192.916 131.55C193.118 133.32 194.597 140.71 194.597 140.71" fill="#B47266"/>
<path d="M194.631 140.738L194.58 140.554L194.463 139.993C194.362 139.5 194.211 138.789 194.02 137.859C193.83 136.929 193.611 135.774 193.348 134.424C193.224 133.752 193.09 133.024 192.961 132.245C192.894 131.858 192.86 131.449 192.782 131.046C192.703 130.642 192.591 130.228 192.468 129.808C191.909 127.955 191.104 126.186 190.076 124.547C189.496 123.621 188.83 122.753 188.087 121.953C187.308 121.135 186.434 120.334 185.571 119.482L173.923 108.187C173.573 107.791 173.198 107.417 172.803 107.066C172.429 106.704 171.982 106.425 171.492 106.248C170.959 106.174 170.421 106.142 169.884 106.153C169.324 106.153 168.763 106.153 168.203 106.153C165.962 106.204 163.682 106.344 161.334 106.456C160.163 106.489 158.981 106.534 157.793 106.601C157.199 106.635 156.6 106.674 156 106.725C155.411 106.759 154.826 106.847 154.252 106.988C154.022 107.141 153.818 107.33 153.647 107.548C153.457 107.784 153.266 108.019 153.087 108.265C152.728 108.758 152.381 109.263 152.039 109.778C151.361 110.798 150.7 111.851 150.045 112.916C149.031 114.596 148.045 116.232 147.098 117.874L147.031 117.672C147.962 118.141 149.007 118.335 150.045 118.233C151.053 118.097 151.98 117.604 152.656 116.843L152.857 116.613L152.908 116.905C153.502 120.014 154.079 123.068 154.633 125.987C154.633 125.903 154.605 125.925 154.594 125.908H154.661C154.715 125.914 154.77 125.914 154.824 125.908C154.935 125.896 155.046 125.875 155.154 125.847L155.479 125.757L155.787 125.628C156.19 125.436 156.545 125.159 156.83 124.816C157.382 124.114 157.735 123.276 157.849 122.39H158.118C158.118 124.788 158.137 127.103 158.174 129.337L158.034 129.214L159.76 129.023C160.294 128.954 160.785 128.691 161.138 128.284C161.836 127.47 162.349 126.514 162.64 125.482L162.684 125.331L162.819 125.421L166.595 128.032L168.371 129.264C168.921 129.672 169.522 130.007 170.158 130.261C171.351 130.734 172.573 131.129 173.817 131.444C174.999 131.752 176.125 132.004 177.178 132.228H177.24V132.29C177.503 135.853 177.716 138.671 177.862 140.604C177.929 141.562 177.98 142.285 178.019 142.806C178.019 143.047 178.019 143.237 178.052 143.366C178.056 143.43 178.056 143.493 178.052 143.557C178.052 143.557 178.052 143.495 178.052 143.366C178.052 143.237 178.019 143.047 177.996 142.806C177.952 142.296 177.884 141.562 177.8 140.604C177.638 138.671 177.403 135.859 177.1 132.301L177.167 132.368C176.097 132.161 174.971 131.909 173.806 131.601C172.551 131.291 171.317 130.9 170.113 130.43C169.465 130.174 168.853 129.835 168.293 129.421L166.505 128.194C165.29 127.359 164.023 126.513 162.718 125.594L162.897 125.533C162.6 126.605 162.072 127.599 161.351 128.446C160.958 128.899 160.411 129.19 159.816 129.264L158.096 129.46H157.956V129.32C157.933 127.079 157.909 124.762 157.883 122.367H158.152C158.031 123.306 157.659 124.194 157.076 124.939C156.77 125.312 156.388 125.616 155.956 125.83L155.619 125.97L155.266 126.065C155.147 126.096 155.025 126.119 154.902 126.132H154.706H154.594H154.527C154.508 126.128 154.491 126.118 154.476 126.104C154.476 126.104 154.437 126.104 154.409 125.992L152.678 116.91L152.936 116.972C152.214 117.795 151.219 118.328 150.134 118.473C149.046 118.592 147.946 118.398 146.963 117.913L146.823 117.846L146.902 117.712C147.854 116.061 148.838 114.404 149.854 112.742C150.51 111.677 151.171 110.624 151.854 109.593C152.196 109.078 152.544 108.568 152.913 108.069C153.093 107.823 153.283 107.582 153.474 107.341C153.67 107.077 153.916 106.852 154.196 106.68C154.797 106.53 155.41 106.438 156.028 106.405C156.628 106.349 157.233 106.316 157.827 106.277C159.02 106.215 160.208 106.17 161.379 106.136C163.71 106.03 166.007 105.89 168.248 105.845C168.808 105.845 169.368 105.845 169.929 105.845C170.491 105.836 171.053 105.872 171.609 105.952C172.14 106.138 172.624 106.438 173.027 106.831C173.434 107.179 173.817 107.554 174.175 107.952L185.79 119.269C186.658 120.126 187.521 120.95 188.305 121.751C189.053 122.566 189.723 123.45 190.305 124.39C191.337 126.047 192.14 127.835 192.692 129.707C192.81 130.133 192.922 130.547 192.995 130.962C193.068 131.376 193.107 131.78 193.174 132.166C193.292 132.945 193.415 133.668 193.538 134.346C193.785 135.696 193.998 136.85 194.171 137.791C194.345 138.733 194.479 139.433 194.575 139.932C194.614 140.167 194.648 140.346 194.67 140.492C194.692 140.638 194.631 140.738 194.631 140.738Z" fill="#89544C"/>
<path d="M163.295 106.876C163.295 106.926 162.365 107.095 160.92 107.593C159.045 108.267 157.23 109.093 155.491 110.064C154.993 110.315 154.541 110.646 154.152 111.044C153.803 111.424 153.524 111.862 153.328 112.339C152.967 113.147 152.791 114.025 152.812 114.91C152.812 115.672 152.869 116.294 152.874 116.72C152.895 116.944 152.885 117.17 152.846 117.392C152.794 117.175 152.764 116.954 152.756 116.731C152.717 116.3 152.633 115.689 152.605 114.916C152.554 113.996 152.717 113.078 153.081 112.232C153.281 111.722 153.574 111.252 153.944 110.848C154.352 110.426 154.828 110.074 155.35 109.806C157.102 108.822 158.947 108.015 160.858 107.397C161.439 107.217 162.03 107.069 162.628 106.954C162.846 106.899 163.07 106.873 163.295 106.876Z" fill="#89544C"/>
<path d="M169.951 108.859C169.671 108.97 169.382 109.058 169.088 109.123C168.528 109.291 167.727 109.515 166.763 109.885C165.634 110.319 164.547 110.853 163.514 111.481C162.92 111.823 162.292 112.187 161.625 112.535C160.959 112.882 160.236 113.185 159.592 113.594C159.272 113.789 158.991 114.041 158.762 114.339C158.556 114.637 158.402 114.969 158.309 115.319C158.133 116.006 158.017 116.708 157.961 117.415C157.88 118.622 157.88 119.833 157.961 121.04C158.012 122.076 158.062 122.916 158.073 123.499C158.1 123.799 158.1 124.101 158.073 124.401C158.016 124.105 157.982 123.806 157.972 123.505C157.922 122.872 157.849 122.048 157.765 121.051C157.661 119.834 157.646 118.611 157.72 117.392C157.773 116.667 157.887 115.947 158.062 115.241C158.163 114.858 158.33 114.496 158.555 114.171C158.801 113.841 159.107 113.562 159.457 113.347C160.152 112.916 160.869 112.636 161.525 112.283C162.18 111.93 162.808 111.582 163.407 111.246C164.461 110.626 165.569 110.105 166.718 109.689C167.495 109.42 168.286 109.196 169.088 109.016C169.37 108.937 169.659 108.884 169.951 108.859Z" fill="#89544C"/>
<path d="M173.201 111.812C172.972 111.93 172.731 112.024 172.483 112.092C172.018 112.26 171.363 112.501 170.528 112.843C168.387 113.691 166.441 114.967 164.808 116.591C163.945 117.502 163.285 118.584 162.869 119.768C162.532 120.739 162.36 121.76 162.359 122.788C162.385 123.733 162.517 124.673 162.752 125.589C162.752 125.589 162.712 125.533 162.662 125.41C162.589 125.227 162.527 125.04 162.477 124.849C162.275 124.171 162.166 123.468 162.152 122.76C162.089 120.387 162.969 118.086 164.6 116.361C166.26 114.721 168.255 113.462 170.45 112.669C171.284 112.35 171.968 112.109 172.45 112.002C172.693 111.913 172.944 111.849 173.201 111.812Z" fill="#89544C"/>
<path d="M176.579 118.832C176.579 118.832 176.545 118.883 176.444 118.944C176.298 119.031 176.136 119.09 175.968 119.118C175.347 119.189 174.719 119.092 174.147 118.838C173.765 118.685 173.369 118.569 172.965 118.491C172.507 118.425 172.04 118.479 171.609 118.648C170.618 119.105 169.678 119.668 168.808 120.328C167.906 120.926 167.124 121.686 166.5 122.569C166.099 123.384 165.604 124.149 165.026 124.85C164.78 125.107 164.497 125.326 164.186 125.5C163.943 125.629 163.671 125.691 163.396 125.679C163.226 125.673 163.058 125.643 162.897 125.589C162.791 125.55 162.735 125.528 162.74 125.516C162.746 125.505 162.976 125.572 163.396 125.567C163.647 125.555 163.891 125.482 164.107 125.354C164.395 125.177 164.655 124.96 164.881 124.71C165.42 123.996 165.887 123.23 166.276 122.424C166.899 121.488 167.703 120.686 168.64 120.065C169.122 119.718 169.598 119.404 170.063 119.101C170.513 118.795 170.998 118.545 171.509 118.356C171.982 118.179 172.494 118.129 172.993 118.211C173.41 118.302 173.817 118.434 174.209 118.603C174.747 118.866 175.342 118.991 175.94 118.967C176.157 118.946 176.372 118.901 176.579 118.832Z" fill="#89544C"/>
<path d="M180.445 132.043C180.293 131.977 180.151 131.888 180.025 131.78C179.659 131.517 179.313 131.229 178.988 130.917C176.805 128.859 175.328 126.162 174.769 123.214C174.679 122.772 174.621 122.325 174.596 121.875C174.568 121.711 174.568 121.545 174.596 121.382C174.646 121.382 174.708 122.076 174.965 123.174C175.633 126.042 177.077 128.67 179.139 130.772C179.918 131.573 180.479 132.004 180.445 132.043Z" fill="#89544C"/>
<path d="M189.235 130.307C189.041 130.685 188.77 131.019 188.44 131.287C187.676 131.978 186.766 132.49 185.779 132.783C184.79 133.076 183.748 133.141 182.731 132.974C182.308 132.928 181.898 132.798 181.526 132.593C181.526 132.542 182.002 132.688 182.759 132.772C183.745 132.876 184.742 132.785 185.693 132.503C186.644 132.222 187.53 131.755 188.3 131.13C188.894 130.649 189.196 130.273 189.235 130.307Z" fill="#89544C"/>
<path d="M200.542 203.751C197.849 205.918 194.419 206.954 190.977 206.64C187.535 206.327 184.349 204.688 182.092 202.07C179.515 199.056 177.47 195.347 177.784 191.386C178.579 181.442 178.097 142.044 178.097 142.044L193.908 137.982C193.908 137.982 206.094 185.604 206.693 193.913C206.968 197.549 203.987 201.012 200.542 203.751Z" fill="#B47266"/>
<path d="M73.2548 187.055H91.3962L101.436 183.526L104.355 175.749C104.355 175.749 110.249 171.267 116.373 176.926C122.497 182.585 126.273 193.908 126.273 193.908L110.025 199.566C110.025 199.566 99.8898 207.141 98.7077 207.163L66.2739 207.6C66.2739 207.6 65.9489 193.185 73.2548 187.055Z" fill="#B47266"/>
<path d="M114.759 183.403L112.636 149.131C112.62 148.827 112.666 148.523 112.771 148.238C112.877 147.952 113.039 147.691 113.249 147.47C113.459 147.249 113.711 147.074 113.991 146.954C114.271 146.834 114.572 146.772 114.877 146.773H133.562C134.138 146.772 134.693 146.994 135.11 147.391C135.527 147.789 135.776 148.332 135.803 148.907L137.148 183.173C137.157 183.474 137.107 183.773 136.998 184.053C136.89 184.334 136.727 184.589 136.517 184.805C136.308 185.021 136.058 185.193 135.781 185.31C135.504 185.427 135.207 185.487 134.906 185.487H116.978C116.414 185.483 115.872 185.266 115.46 184.879C115.049 184.493 114.799 183.966 114.759 183.403Z" fill="#263238"/>
<path d="M134.99 167.984C134.969 167.847 134.958 167.708 134.957 167.569C134.957 167.267 134.923 166.869 134.901 166.376C134.867 165.306 134.822 163.816 134.766 161.989C134.71 160.163 134.665 157.927 134.604 155.485C134.574 154.256 134.546 152.975 134.52 151.641C134.548 150.98 134.472 150.318 134.296 149.68C134.19 149.374 133.995 149.106 133.735 148.913C133.464 148.727 133.15 148.613 132.822 148.582C132.134 148.543 131.443 148.543 130.755 148.582L128.721 148.627L124.878 148.7L118.373 148.812L115.874 148.845C115.252 148.812 114.627 148.851 114.014 148.963C113.827 149.004 113.651 149.087 113.499 149.205C113.348 149.324 113.225 149.474 113.14 149.647C113.095 149.774 113.073 149.909 113.073 150.044C113.026 149.91 113.026 149.764 113.073 149.63C113.146 149.437 113.263 149.263 113.414 149.123C113.566 148.983 113.748 148.88 113.947 148.823C114.568 148.686 115.205 148.627 115.841 148.649L118.339 148.571L124.844 148.397L128.687 148.308L130.721 148.257C131.425 148.218 132.13 148.218 132.833 148.257C133.209 148.298 133.569 148.431 133.881 148.644C134.182 148.873 134.406 149.187 134.525 149.546C134.712 150.214 134.792 150.908 134.761 151.602C134.783 152.935 134.806 154.216 134.828 155.445C134.867 157.888 134.901 160.09 134.929 161.95C134.957 163.81 134.962 165.272 134.974 166.337C134.974 166.836 134.974 167.233 134.974 167.53C134.995 167.681 135 167.833 134.99 167.984Z" fill="#455A64"/>
<path d="M124.541 154.689C124.438 154.456 124.262 154.263 124.04 154.138C123.818 154.013 123.562 153.963 123.309 153.994C123.162 153.957 123.01 153.95 122.861 153.977C122.712 154.003 122.57 154.061 122.446 154.146C122.321 154.232 122.216 154.343 122.138 154.472C122.059 154.602 122.01 154.746 121.992 154.896C121.981 155.204 122.074 155.507 122.258 155.754C122.441 156.001 122.703 156.179 123.001 156.258C123.224 156.319 123.458 156.323 123.684 156.271C123.909 156.218 124.117 156.109 124.289 155.955C124.457 155.796 124.571 155.589 124.616 155.362C124.661 155.135 124.635 154.9 124.541 154.689Z" fill="#E0E0E0"/>
<path d="M103.997 176.702V173.212C103.997 173.212 107.425 165.144 107.325 165.441C107.224 165.738 113.403 161.491 113.403 161.491C113.614 163.267 113.546 165.064 113.202 166.819C112.799 168.139 112.102 169.35 111.162 170.36L110.681 174.125L118.446 167.8L127.707 162.931C128.257 162.887 128.808 162.986 129.308 163.219C129.808 163.451 130.239 163.81 130.559 164.259C131.741 165.833 130.066 167.407 129.281 167.9C128.497 168.393 121.438 173.503 121.438 173.503L117.516 178.024L118.351 178.977L125.275 174.584C125.275 174.584 134.032 168.192 135.999 167.794H136.105C136.468 167.734 136.84 167.786 137.173 167.941C137.506 168.096 137.784 168.348 137.972 168.664C138.159 168.979 138.247 169.345 138.224 169.711C138.201 170.078 138.068 170.429 137.842 170.719C135.433 173.85 131.287 179.179 131.08 178.994C130.783 178.736 121.791 184.932 121.791 184.932C121.791 184.932 130.783 181.98 131.573 181.291C132.363 180.602 140.425 172.046 140.425 172.046C140.425 172.046 141.506 172.242 141.702 174.702L141.215 177.162C141.215 177.162 141.411 177.75 141.702 179.027C141.994 180.305 137.472 189.067 137.472 189.067C137.472 189.067 119.762 198.805 118.093 198.906C116.423 199.006 110.221 198.906 110.221 198.906L103.997 176.702Z" fill="#B47266"/>
<path d="M141.024 176.842C140.946 177.104 140.833 177.355 140.688 177.587C140.322 178.239 139.912 178.866 139.461 179.464C138.901 180.231 138.206 181.105 137.5 182.131C136.72 183.247 135.833 184.285 134.85 185.229C133.01 186.881 130.956 188.277 128.743 189.381C127.909 189.818 127.225 190.154 126.743 190.383C126.505 190.515 126.253 190.622 125.993 190.703C126.212 190.54 126.446 190.4 126.693 190.283L128.648 189.201C130.809 188.053 132.824 186.647 134.649 185.016C135.62 184.087 136.501 183.068 137.282 181.974C137.999 180.954 138.722 180.086 139.293 179.341C139.865 178.595 140.307 177.974 140.587 177.531C140.719 177.293 140.865 177.062 141.024 176.842Z" fill="#89544C"/>
<path d="M76.9301 185.05C75.7694 185.597 74.6754 186.276 73.6694 187.073C71.316 189.101 69.5382 191.714 68.5149 194.647C67.5203 197.59 66.8899 200.644 66.6381 203.741C66.526 204.895 66.4364 205.841 66.3691 206.542C66.3355 206.85 66.3131 207.102 66.2907 207.309C66.2888 207.399 66.2717 207.488 66.2403 207.573C66.2316 207.483 66.2316 207.393 66.2403 207.304C66.2403 207.097 66.2403 206.839 66.2683 206.536C66.2683 205.87 66.3467 204.9 66.442 203.707C66.6286 200.584 67.2296 197.5 68.2292 194.535C69.266 191.554 71.0989 188.913 73.5293 186.899C74.2705 186.306 75.0814 185.805 75.9441 185.409C76.2466 185.257 76.5043 185.185 76.6612 185.117C76.7487 185.087 76.8387 185.065 76.9301 185.05Z" fill="#263238"/>
<path d="M121.964 212.127L170.707 224.24L245.665 218.464L260.49 158.897C261.566 155.305 259.75 153.339 257.459 153.35L187.527 156.812C186.449 156.873 185.422 157.287 184.604 157.991C183.787 158.695 183.224 159.65 183.005 160.706L170.719 219.596L121.975 209.085L121.964 212.127Z" fill="#EBEBEB"/>
<path d="M121.964 212.127C121.964 212.127 121.964 211.886 121.964 211.382C121.964 210.878 121.964 210.11 121.964 209.085H121.998L170.769 219.517L170.646 219.596L176.478 191.582L179.767 175.805C180.331 173.082 180.906 170.32 181.492 167.519C181.784 166.118 182.077 164.706 182.372 163.283C182.523 162.572 182.669 161.86 182.82 161.143C182.932 160.4 183.193 159.687 183.588 159.048C183.996 158.401 184.547 157.855 185.199 157.454C185.851 157.053 186.585 156.807 187.347 156.734C188.843 156.639 190.339 156.577 191.829 156.499L200.99 156.045L219.927 155.098L239.586 154.123L249.671 153.624L254.758 153.372L257.313 153.243C258.213 153.185 259.101 153.474 259.795 154.05C260.376 154.561 260.77 155.251 260.916 156.011C261.045 156.755 261.026 157.516 260.86 158.252C260.509 159.672 260.157 161.085 259.806 162.493C259.108 165.298 258.413 168.1 257.722 170.897C256.336 176.451 254.973 181.927 253.632 187.324C250.943 198.115 248.343 208.558 245.856 218.565V218.66H245.755L170.791 224.397L134.968 215.433L125.27 212.957L122.793 212.329C122.233 212.189 121.964 212.111 121.964 212.111L122.816 212.312L125.315 212.923L134.946 215.287L170.741 224.162H170.713L245.665 218.352L245.542 218.453C248.03 208.446 250.629 197.997 253.307 187.207C254.652 181.813 256.013 176.336 257.392 170.774C258.086 167.999 258.783 165.198 259.481 162.37C259.829 160.969 260.176 159.569 260.529 158.151C260.685 157.456 260.704 156.736 260.585 156.034C260.456 155.341 260.104 154.709 259.582 154.235C258.294 153.075 256.406 153.647 254.742 153.63L249.654 153.882L239.57 154.381L219.91 155.35L200.973 156.286L191.813 156.739C190.305 156.818 188.798 156.874 187.33 156.969C186.611 157.04 185.916 157.273 185.3 157.652C184.683 158.03 184.161 158.544 183.773 159.154C183.398 159.77 183.148 160.453 183.039 161.166C182.893 161.877 182.742 162.594 182.596 163.3C182.294 164.723 182.002 166.135 181.705 167.536C181.123 170.341 180.546 173.103 179.974 175.822C178.854 181.257 177.754 186.516 176.674 191.599C174.545 201.746 172.579 211.136 170.803 219.612V219.708H170.702L121.959 209.13V209.102C121.959 210.122 121.959 210.884 121.959 211.388C121.959 211.892 121.964 212.127 121.964 212.127Z" fill="#263238"/>
<path d="M218.285 183.262C217.552 183.375 216.862 183.678 216.283 184.141C215.703 184.604 215.256 185.211 214.985 185.901C214.741 186.602 214.748 187.365 215.004 188.061C215.261 188.757 215.751 189.342 216.391 189.717C217.949 190.507 219.966 189.582 220.873 188.086C221.151 187.607 221.326 187.075 221.388 186.524C221.449 185.974 221.396 185.416 221.232 184.887C220.907 183.767 218.991 183.033 218.285 183.262Z" fill="white"/>
<path d="M218.285 183.263C218.549 183.157 218.842 183.145 219.114 183.229C219.435 183.297 219.746 183.406 220.039 183.554C220.441 183.738 220.794 184.014 221.07 184.361C221.231 184.57 221.342 184.814 221.395 185.073C221.464 185.338 221.507 185.611 221.523 185.885C221.564 186.501 221.465 187.117 221.232 187.689C220.944 188.335 220.497 188.897 219.932 189.323C219.368 189.749 218.705 190.026 218.005 190.126C217.26 190.221 216.507 190.02 215.91 189.566C215.363 189.142 214.97 188.552 214.789 187.885C214.626 187.287 214.626 186.657 214.789 186.059C214.941 185.545 215.203 185.071 215.557 184.669C216.069 184.099 216.722 183.672 217.45 183.431C217.646 183.365 217.846 183.315 218.05 183.28C218.19 183.28 218.263 183.28 218.263 183.28C218.263 183.28 217.977 183.352 217.489 183.549C216.803 183.82 216.194 184.255 215.713 184.815C215.391 185.201 215.156 185.652 215.024 186.137C214.875 186.687 214.875 187.267 215.024 187.818C215.188 188.425 215.544 188.964 216.038 189.353C216.579 189.758 217.257 189.935 217.926 189.846C218.575 189.751 219.19 189.496 219.716 189.105C220.242 188.714 220.663 188.198 220.941 187.605C221.165 187.074 221.266 186.5 221.238 185.924C221.243 185.426 221.113 184.937 220.862 184.507C220.611 184.177 220.289 183.907 219.921 183.717C219.642 183.566 219.347 183.447 219.041 183.364C218.797 183.288 218.541 183.254 218.285 183.263Z" fill="#263238"/>
<path d="M70.2741 75.5291H31.7447C30.81 75.5291 29.9137 75.9003 29.2528 76.5612C28.5919 77.2221 28.2206 78.1185 28.2206 79.0531V117.583C28.2206 118.517 28.5919 119.414 29.2528 120.074C29.9137 120.735 30.81 121.107 31.7447 121.107H58.4021L69.1256 129.936V121.107H70.2741C71.2088 121.107 72.1051 120.735 72.766 120.074C73.4269 119.414 73.7982 118.517 73.7982 117.583V79.0531C73.7982 78.1185 73.4269 77.2221 72.766 76.5612C72.1051 75.9003 71.2088 75.5291 70.2741 75.5291Z" fill="white"/>
<path d="M32.1705 75.5292H70.4367C71.3282 75.5292 72.1832 75.8833 72.8137 76.5137C73.4441 77.1442 73.7983 77.9992 73.7983 78.8907V89.7879C73.7983 89.8221 73.7847 89.8549 73.7605 89.879C73.7363 89.9032 73.7036 89.9168 73.6694 89.9168H28.3495C28.3153 89.9168 28.2826 89.9032 28.2584 89.879C28.2342 89.8549 28.2206 89.8221 28.2206 89.7879V79.4734C28.2177 78.9541 28.3178 78.4395 28.5154 77.9592C28.7129 77.4789 29.0038 77.0427 29.3712 76.6758C29.7387 76.3088 30.1753 76.0185 30.6559 75.8217C31.1364 75.6249 31.6513 75.5254 32.1705 75.5292Z" fill="#FF8080"/>
<path d="M47.8803 96.7126V112.204H44.2946V99.5868H41.1963V96.7126H47.8803Z" fill="#263238"/>
<path d="M62.7161 96.7126V99.0321L56.9622 112.204H53.0403L58.5981 99.6316H53.4605V102.153H50.2726V96.7126H62.7161Z" fill="#263238"/>
<path d="M57.3768 83.692C57.3768 83.7761 54.2449 83.8377 50.3847 83.8377C46.5244 83.8377 43.387 83.7761 43.387 83.692C43.387 83.608 46.5188 83.5352 50.3903 83.5352C54.2617 83.5352 57.3768 83.6136 57.3768 83.692Z" fill="#263238"/>
<path d="M70.2742 75.5292H70.5151C70.7498 75.5392 70.9828 75.5749 71.2098 75.6356C72.1113 75.8731 72.8825 76.4571 73.3556 77.2604C73.6991 77.8473 73.87 78.5192 73.8486 79.1989C73.8486 79.9385 73.8486 80.7397 73.8486 81.6025C73.8486 83.3393 73.8486 85.3282 73.8486 87.5581C73.8486 92.0122 73.8486 97.4132 73.8767 103.582C73.8767 106.669 73.8767 109.952 73.8767 113.409C73.8767 114.272 73.8767 115.146 73.8767 116.031V117.364C73.8929 117.829 73.8303 118.293 73.6918 118.737C73.4657 119.421 73.0413 120.022 72.4726 120.464C71.904 120.906 71.2167 121.169 70.4983 121.219C70.0108 121.247 69.557 121.219 69.0808 121.219L69.2096 121.09C69.2096 123.891 69.2096 126.855 69.2096 129.92V130.206L68.9855 130.021L58.2621 121.202L58.3517 121.23H31.6999C31.2847 121.221 30.8738 121.144 30.4841 121C29.6991 120.716 29.0361 120.17 28.6072 119.454C28.395 119.108 28.2417 118.73 28.1534 118.333C28.086 117.936 28.0597 117.532 28.0749 117.129V110.148C28.0749 104.019 28.0749 98.1079 28.0749 92.4772C28.0749 89.6759 28.0749 86.9138 28.0749 84.2469C28.0749 82.9135 28.0749 81.6062 28.0749 80.3251C28.0499 79.6762 28.0724 79.0265 28.1422 78.3809C28.2641 77.7375 28.5559 77.1384 28.9874 76.6459C29.4189 76.1533 29.9744 75.7851 30.5961 75.5796C31.1978 75.4156 31.823 75.355 32.445 75.4003H36.0027H42.6867L62.8562 75.4451H68.3412H69.7643C70.0893 75.4451 70.2517 75.4451 70.2517 75.4451H69.7643H68.3412L62.8562 75.4732L42.6867 75.5236H32.4618C31.8664 75.4799 31.2679 75.5367 30.6914 75.6917C30.1038 75.9233 29.5905 76.3107 29.2067 76.8122C28.7997 77.2706 28.523 77.8297 28.4055 78.4314C28.3414 79.0623 28.3227 79.697 28.3495 80.3307V84.2525C28.3495 86.9194 28.3495 89.6703 28.3495 92.4828C28.3495 98.0855 28.3495 104.024 28.3495 110.154V117.151C28.3339 117.536 28.3583 117.921 28.4223 118.3C28.5399 118.86 28.7987 119.382 29.1743 119.814C29.5498 120.246 30.0296 120.576 30.5681 120.771C31.322 120.982 32.1079 121.054 32.8876 120.984H58.4357L58.475 121.012L69.1928 129.847L68.9687 129.953C68.9687 126.889 68.9687 123.908 68.9687 121.124V120.995H69.1032C69.5682 120.995 70.05 120.995 70.5039 120.995C70.951 120.961 71.387 120.839 71.7869 120.636C72.1814 120.438 72.5329 120.163 72.8213 119.829C73.1097 119.494 73.3293 119.106 73.4677 118.686C73.6031 118.269 73.6638 117.831 73.6469 117.392V116.031C73.6469 115.146 73.6469 114.272 73.6469 113.409C73.6469 109.952 73.6469 106.686 73.6469 103.582C73.6469 97.4188 73.6469 92.0122 73.6469 87.5581C73.6469 85.317 73.6469 83.3393 73.6469 81.6025C73.6469 79.8656 73.8711 78.3361 73.1875 77.3052C72.7349 76.5094 71.9856 75.9252 71.1033 75.6805C70.8313 75.6084 70.5541 75.5578 70.2742 75.5292Z" fill="#263238"/>
<path d="M57.8082 71.0637H57.713C56.9208 71.0637 56.2787 71.7059 56.2787 72.498V79.9215C56.2787 80.7137 56.9208 81.3558 57.713 81.3558H57.8082C58.6003 81.3558 59.2425 80.7137 59.2425 79.9215V72.498C59.2425 71.7059 58.6003 71.0637 57.8082 71.0637Z" fill="#E0E0E0"/>
<path d="M57.8138 81.3557C58.1188 81.3128 58.4079 81.1933 58.6542 81.0083C58.9306 80.784 59.1076 80.46 59.1472 80.1063C59.1472 79.6973 59.1472 79.1875 59.1472 78.6496C59.1472 77.5291 59.1472 76.2573 59.1192 74.8286C59.1192 74.1059 59.1192 73.3495 59.1192 72.5875C59.1284 72.4039 59.0985 72.2204 59.0315 72.0492C58.9645 71.878 58.862 71.7229 58.7307 71.5943C58.5994 71.4656 58.4423 71.3663 58.2697 71.3028C58.0972 71.2393 57.9131 71.2132 57.7297 71.2261C57.5452 71.2268 57.3629 71.2666 57.1948 71.3429C57.0268 71.4192 56.8768 71.5302 56.7549 71.6687C56.6379 71.8084 56.5499 71.9701 56.496 72.1442C56.4421 72.3183 56.4235 72.5014 56.4411 72.6828C56.4411 73.4672 56.4411 74.2235 56.4411 74.9238C56.4411 76.3525 56.4411 77.6467 56.4411 78.7505C56.4411 79.0194 56.4411 79.2771 56.4411 79.5236C56.4208 79.7491 56.4208 79.976 56.4411 80.2015C56.5111 80.55 56.7115 80.8586 57.0014 81.0644C57.2619 81.2326 57.5605 81.3327 57.8698 81.3557C57.7885 81.3725 57.7046 81.3725 57.6233 81.3557C57.3802 81.344 57.1445 81.2686 56.9398 81.1372C56.6101 80.9252 56.3753 80.594 56.2842 80.2128C56.2484 79.9774 56.2353 79.7391 56.245 79.5012C56.245 79.2547 56.245 78.997 56.245 78.728C56.245 77.6075 56.245 76.3301 56.2114 74.9014C56.2114 74.1843 56.2114 73.4279 56.2114 72.6604C56.1916 72.4443 56.2151 72.2265 56.2805 72.0197C56.3459 71.8128 56.4519 71.6211 56.5924 71.4558C56.739 71.2817 56.9216 71.1415 57.1276 71.0447C57.3336 70.948 57.5582 70.8971 57.7858 70.8955C58.0103 70.8807 58.2355 70.914 58.4461 70.9932C58.6568 71.0724 58.8481 71.1957 59.0072 71.3548C59.1664 71.514 59.2897 71.7053 59.3689 71.916C59.4481 72.1266 59.4814 72.3518 59.4666 72.5763C59.4666 73.3551 59.4666 74.1115 59.4666 74.8174C59.4666 76.2461 59.4666 77.5347 59.4329 78.6384C59.4329 79.1987 59.4329 79.6637 59.3937 80.1175C59.3698 80.3083 59.3079 80.4923 59.2117 80.6588C59.1154 80.8253 58.9868 80.9708 58.8335 81.0868C58.6412 81.2331 58.4126 81.3241 58.1723 81.3501C58.0578 81.3969 57.9298 81.3989 57.8138 81.3557Z" fill="#263238"/>
<path d="M43.8968 71.0637H43.8016C43.0095 71.0637 42.3673 71.7059 42.3673 72.498V79.9215C42.3673 80.7137 43.0095 81.3558 43.8016 81.3558H43.8968C44.689 81.3558 45.3311 80.7137 45.3311 79.9215V72.498C45.3311 71.7059 44.689 71.0637 43.8968 71.0637Z" fill="#E0E0E0"/>
<path d="M43.8968 81.3558C44.2039 81.3143 44.4952 81.1947 44.7428 81.0084C45.0191 80.7841 45.1962 80.4601 45.2358 80.1064C45.2358 79.6974 45.2358 79.1876 45.2358 78.6497C45.2358 77.5292 45.2358 76.2574 45.2022 74.8287C45.2022 74.106 45.2022 73.3496 45.2022 72.5876C45.2114 72.404 45.1815 72.2205 45.1145 72.0493C45.0475 71.8781 44.945 71.723 44.8137 71.5944C44.6824 71.4657 44.5253 71.3664 44.3527 71.3029C44.1802 71.2394 43.9961 71.2133 43.8127 71.2262C43.6281 71.2265 43.4457 71.2661 43.2776 71.3425C43.1095 71.4188 42.9596 71.53 42.8379 71.6688C42.7199 71.8081 42.6309 71.9695 42.576 72.1437C42.5212 72.3178 42.5016 72.5011 42.5185 72.6829C42.5185 73.4672 42.5185 74.2236 42.5185 74.9239C42.5185 76.3526 42.5185 77.6468 42.4849 78.7506C42.4849 79.0195 42.4849 79.2772 42.4849 79.5237C42.4643 79.7492 42.4643 79.9761 42.4849 80.2016C42.5527 80.551 42.7536 80.8603 43.0452 81.0644C43.3036 81.2329 43.6004 81.3331 43.908 81.3558C43.908 81.3558 43.8295 81.3558 43.6615 81.3558C43.4202 81.3439 43.1864 81.2685 42.9835 81.1373C42.6523 80.927 42.4168 80.595 42.328 80.2128C42.293 79.9774 42.278 79.7393 42.2832 79.5013C42.2832 79.2548 42.2832 78.9971 42.2832 78.7281C42.2832 77.6076 42.2832 76.3302 42.2832 74.9015C42.2832 74.1844 42.2832 73.428 42.2832 72.6605C42.2503 72.2239 42.389 71.7917 42.6698 71.4559C42.8161 71.2815 42.9987 71.1411 43.2048 71.0443C43.4108 70.9476 43.6355 70.8968 43.8632 70.8956C44.0875 70.8817 44.3123 70.9156 44.5225 70.9952C44.7327 71.0747 44.9237 71.198 45.0826 71.357C45.2416 71.5159 45.3649 71.7068 45.4444 71.9171C45.524 72.1273 45.5579 72.3521 45.544 72.5764C45.544 73.3552 45.544 74.1116 45.544 74.8175C45.544 76.2462 45.544 77.5348 45.544 78.6385C45.544 79.1988 45.544 79.6638 45.5047 80.1176C45.4522 80.5016 45.251 80.8497 44.9445 81.0869C44.7516 81.2322 44.5233 81.3231 44.2834 81.3502C44.1602 81.4027 44.0214 81.4047 43.8968 81.3558Z" fill="#263238"/>
<g opacity="0.3">
<path opacity="0.3" d="M40.6696 75.9607C40.8564 77.7855 40.6818 79.6292 40.1558 81.3864C39.6297 83.1437 38.7626 84.7801 37.6039 86.2021C36.4451 87.6241 35.0176 88.8038 33.4027 89.6739C31.7879 90.5439 30.0174 91.0872 28.1925 91.2728L28.7528 83.6139L35.6945 76.0671L40.6696 75.9607Z" fill="black"/>
</g>
<path d="M28.4617 88.0871C35.4586 86.3231 39.7007 79.221 37.9367 72.2241C36.1727 65.2272 29.0706 60.9851 22.0738 62.7491C15.0769 64.5131 10.8348 71.6152 12.5988 78.6121C14.3628 85.609 21.4648 89.8511 28.4617 88.0871Z" fill="white"/>
<path d="M25.2512 89.8947C22.4762 89.893 19.7602 89.0934 17.4269 87.5913C15.0936 86.0892 13.2414 83.9479 12.0909 81.4227C10.9405 78.8974 10.5404 76.0946 10.9382 73.3482C11.3361 70.6019 12.5152 68.0279 14.3349 65.9329C16.1547 63.8379 18.5385 62.3103 21.2021 61.5321C23.8658 60.7539 26.697 60.758 29.3584 61.5438C32.0198 62.3296 34.3992 63.864 36.213 65.9642C38.0267 68.0644 39.1984 70.6418 39.5884 73.3893C40.1227 77.1886 39.1288 81.0448 36.8246 84.1125C34.5204 87.1802 31.0939 89.2092 27.2962 89.7547C26.6185 89.8481 25.9353 89.8949 25.2512 89.8947ZM25.2848 63.7695C24.7225 63.7689 24.1608 63.8082 23.604 63.8872C21.3235 64.2146 19.1911 65.2107 17.4764 66.7495C15.7617 68.2884 14.5417 70.301 13.9704 72.533C13.3992 74.7651 13.5024 77.1163 14.2669 79.2897C15.0315 81.4631 16.4232 83.3611 18.2661 84.7439C20.1089 86.1266 22.3204 86.9321 24.6208 87.0584C26.9213 87.1848 29.2077 86.6264 31.1909 85.4539C33.1742 84.2813 34.7654 82.5472 35.7634 80.4706C36.7615 78.3941 37.1216 76.0683 36.7983 73.7871C36.4048 71.0118 35.0242 68.4714 32.9095 66.6314C30.7948 64.7915 28.0879 63.7755 25.2848 63.7695Z" fill="#455A64"/>
<path d="M25.2849 63.7693C25.348 63.7605 25.4122 63.7605 25.4753 63.7693C25.5986 63.7693 25.7835 63.7693 26.0356 63.7693C26.75 63.8012 27.4595 63.9045 28.1534 64.0775C29.2544 64.3474 30.3096 64.7778 31.2853 65.3549C32.5851 66.121 33.7262 67.1289 34.6469 68.3243C35.7604 69.7789 36.5149 71.4758 36.8487 73.277C36.9346 73.7684 36.9945 74.264 37.028 74.7617C37.0421 75.0174 37.0421 75.2736 37.028 75.5293C37.028 75.787 37.028 76.0503 37.028 76.3137C36.9383 77.3893 36.7123 78.4492 36.3557 79.468C35.9382 80.5298 35.3825 81.532 34.7029 82.4486C33.9882 83.3921 33.1452 84.2312 32.1985 84.9417C30.1743 86.4252 27.73 87.225 25.2204 87.225C22.7108 87.225 20.2665 86.4252 18.2423 84.9417C16.3602 83.5585 14.9341 81.6446 14.1468 79.4455C13.7985 78.4126 13.5838 77.3394 13.5081 76.252C13.4367 75.2363 13.4969 74.2156 13.6874 73.2154C14.1073 71.0099 15.1548 68.9724 16.7041 67.3475C18.2535 65.7226 20.2388 64.5794 22.4219 64.055C22.8757 63.9542 23.2847 63.8814 23.6377 63.8365L24.5397 63.7861H25.1H25.2905L25.1 63.8141L24.5397 63.8646L23.6433 63.943C23.2903 63.999 22.8925 64.0775 22.4443 64.1895C21.3597 64.4715 20.3205 64.9054 19.3572 65.4781C18.0923 66.2408 16.9823 67.2349 16.0853 68.4083C14.9976 69.8373 14.259 71.5007 13.9283 73.2658C13.7437 74.246 13.6891 75.2463 13.7658 76.2408C13.8521 77.2917 14.0724 78.3273 14.4213 79.3223C14.8113 80.3617 15.3369 81.3451 15.9844 82.2469C16.6933 83.1679 17.5246 83.9878 18.4552 84.684C20.4314 86.1274 22.8153 86.9052 25.2624 86.9052C27.7096 86.9052 30.0935 86.1274 32.0697 84.684C33.9116 83.3401 35.3135 81.48 36.098 79.3391C36.4554 78.3456 36.6814 77.3097 36.7703 76.2576C36.8039 76.0055 36.7703 75.7478 36.7703 75.4957C36.7843 75.2456 36.7843 74.995 36.7703 74.7449C36.7199 74.2519 36.6975 73.7588 36.6022 73.2826C36.2813 71.5161 35.5523 69.8489 34.4732 68.4139C32.891 66.3256 30.657 64.8251 28.1254 64.1503C27.439 63.9697 26.7377 63.8515 26.03 63.7973C25.5426 63.7805 25.2849 63.7861 25.2849 63.7693Z" fill="#263238"/>
<path d="M25.2512 89.8944H25.4865L26.17 89.8552C26.4725 89.8552 26.8423 89.7936 27.2905 89.7264L28.7864 89.4182C30.1295 89.0545 31.4182 88.5138 32.6187 87.8103C34.1929 86.8512 35.5743 85.6066 36.6918 84.1405C38.0364 82.3561 38.951 80.2854 39.3643 78.0896C39.429 77.7942 39.4739 77.4947 39.4987 77.1932C39.4987 76.8907 39.5659 76.5881 39.594 76.28C39.622 75.9718 39.594 75.6581 39.594 75.3443V74.8681L39.5491 74.3919C39.4625 73.081 39.1909 71.7889 38.7424 70.5541C37.7325 67.7962 35.9029 65.4134 33.4992 63.7258C31.0955 62.0382 28.2329 61.1267 25.296 61.1136C22.3511 61.1066 19.4758 62.0076 17.0616 63.694C14.6474 65.3803 12.8117 67.7699 11.8048 70.5373C10.9175 72.9401 10.6987 75.5386 11.1717 78.056C11.3785 79.1953 11.7228 80.3053 12.197 81.3616C12.425 81.8566 12.6794 82.3392 12.9589 82.8071L13.3735 83.485L13.8385 84.1069C14.9421 85.5811 16.3193 86.829 17.8949 87.7822C19.0914 88.4937 20.3812 89.0348 21.7271 89.3902C22.2168 89.5232 22.7146 89.6242 23.2174 89.6927C23.5878 89.7607 23.962 89.8056 24.3379 89.8272L25.0271 89.872H25.2624C25.1842 89.8819 25.1052 89.8819 25.0271 89.872H24.3379C23.9626 89.8632 23.5883 89.8295 23.2174 89.7712C22.7108 89.7114 22.209 89.6159 21.7159 89.4854C18.5093 88.7085 15.6693 86.8482 13.6761 84.2189L13.2055 83.5915L12.7796 82.9079C12.4926 82.4346 12.2308 81.9465 11.9953 81.4456C11.5113 80.3711 11.1577 79.2426 10.942 78.084C10.4415 75.5208 10.6468 72.8697 11.5359 70.414C12.5548 67.5884 14.4222 65.147 16.8825 63.4239C19.3428 61.7008 22.2755 60.7803 25.2792 60.7886C28.2806 60.7907 31.2086 61.7175 33.6646 63.4427C36.1207 65.168 37.9856 67.608 39.0057 70.4308C39.4621 71.6927 39.7356 73.0133 39.8181 74.3527L39.8573 74.8345V75.3163C39.8573 75.6357 39.8573 75.955 39.8573 76.2688C39.8573 76.5825 39.7901 76.8963 39.7564 77.2044C39.7326 77.51 39.6857 77.8134 39.6164 78.1121C39.1867 80.3414 38.2471 82.4411 36.8711 84.247C35.7298 85.723 34.3216 86.9716 32.7195 87.9279C31.5005 88.6272 30.1926 89.1586 28.8313 89.5079L27.3185 89.7936C26.8815 89.8496 26.5062 89.8776 26.198 89.8888C25.8899 89.9 25.6377 89.8888 25.5089 89.8888C25.38 89.8888 25.2512 89.8944 25.2512 89.8944Z" fill="#263238"/>
<path d="M32.1013 57.3724L30.9076 59.2869L38.5844 64.0735L39.7781 62.1591L32.1013 57.3724Z" fill="#455A64"/>
<path d="M38.3614 64.1779C38.4493 63.9855 38.5484 63.7984 38.6584 63.6177L39.482 62.245V62.3683C37.7451 61.3206 34.9382 59.595 31.7951 57.6284L31.9968 57.5836V57.6172L31.9576 57.6789L31.8792 57.7965L31.7279 58.043L31.4254 58.5249C31.2311 58.8423 31.0444 59.1561 30.8651 59.4661L30.8203 59.27C32.9773 60.6258 34.8542 61.8304 36.21 62.7156L37.8124 63.7633C38.0063 63.8916 38.1933 64.03 38.3726 64.1779C38.1787 64.0867 37.9915 63.9818 37.8124 63.8642L36.1932 62.9005C34.815 62.0713 32.8652 60.8892 30.6522 59.5389L30.5289 59.4605L30.6074 59.3428L31.1676 58.396L31.4702 57.9142L31.6214 57.6732L31.6999 57.55L31.7391 57.4884V57.4603L31.9352 57.4155C35.0839 59.3821 37.8628 61.1469 39.566 62.2506L39.6388 62.301L39.594 62.3739C39.1906 62.9902 38.8713 63.4608 38.6584 63.7801C38.5692 63.9198 38.47 64.0528 38.3614 64.1779Z" fill="#263238"/>
<path d="M13.4344 60.5622L7.15808 67.7039L8.84987 69.1907L15.1262 62.049L13.4344 60.5622Z" fill="#455A64"/>
<path d="M8.8578 69.187C8.8578 69.187 9.02588 68.9629 9.32843 68.5931L10.6114 67.0524C11.732 65.7582 13.2447 63.9709 15.0039 61.954V62.1557L13.3231 60.671H13.5304L13.4968 60.7102L13.4352 60.7774L13.3175 60.9119L13.0766 61.1864L12.6004 61.7467L11.6703 62.8056L9.95032 64.7441L7.24984 67.7583V67.6351C7.73727 68.0889 8.13506 68.4642 8.44881 68.7556C8.76256 69.0469 8.88582 69.1814 8.88582 69.1926C8.72371 69.0938 8.57171 68.9793 8.432 68.8508C8.13506 68.6099 7.69245 68.2457 7.13779 67.7695L7.07056 67.7135L7.12658 67.6519L9.78224 64.5592L11.463 62.6095C11.76 62.2621 12.0681 61.9147 12.3819 61.5562C12.5331 61.3769 12.6956 61.1976 12.8525 60.9959L13.0934 60.7214L13.2111 60.5869L13.2727 60.5141L13.3063 60.4805H13.5136L15.1944 61.9708L15.3009 62.066L15.2056 62.1725C13.3904 64.223 11.788 66.0047 10.6451 67.2597L9.30602 68.722C9.16632 68.8861 9.01663 69.0414 8.8578 69.187Z" fill="#263238"/>
<path d="M19.5645 76.566L20.6794 74.4482L24.6629 76.2466L28.9489 68.4421L30.9547 69.5963L25.4024 79.4402L19.5645 76.566Z" fill="#455A64"/>
<path d="M25.4081 79.4566L19.5757 76.5713L20.6962 74.4367L24.6573 76.2519L28.9433 68.4082L30.9603 69.568L25.4081 79.4566ZM19.5757 76.5601L25.3912 79.4174L30.9323 69.6016L28.9489 68.481L24.6685 76.2519L20.6962 74.4647L19.5757 76.5601Z" fill="#263238"/>
<path d="M17.4803 91.5527C17.2674 91.4909 17.0624 91.4044 16.8696 91.295C16.6438 91.1872 16.4249 91.0656 16.2141 90.9308C15.9131 90.7596 15.6213 90.5725 15.3401 90.3705C14.5957 89.8724 13.8965 89.3099 13.2503 88.6897C12.4613 87.9287 11.7448 87.0959 11.1101 86.2022C10.4877 85.3009 9.9495 84.3445 9.50211 83.3448C9.14649 82.524 8.85977 81.6751 8.6449 80.8068C8.55824 80.4745 8.48904 80.1379 8.4376 79.7983C8.3854 79.5451 8.34984 79.2887 8.33115 79.0308C8.29758 78.814 8.28632 78.5943 8.29754 78.3752C8.35356 78.3752 8.44321 79.3053 8.8578 80.7564C9.09598 81.6033 9.3975 82.4311 9.75983 83.2328C10.2127 84.2107 10.7488 85.148 11.3622 86.0341C11.9739 86.9217 12.6599 87.7557 13.4128 88.5273C14.0438 89.1375 14.7199 89.6994 15.4353 90.2081C16.6567 91.0989 17.5083 91.5023 17.4803 91.5527Z" fill="#263238"/>
<path d="M10.8692 88.5774C10.5118 88.2611 10.1973 87.8995 9.93351 87.5017C9.25323 86.5714 8.65878 85.5813 8.15747 84.5435C7.65742 83.5007 7.25783 82.4126 6.96411 81.294C6.80857 80.8419 6.71619 80.3706 6.68958 79.8933C6.86823 80.3318 7.01979 80.7809 7.14339 81.2379C7.49059 82.3218 7.90986 83.3812 8.39839 84.4091C8.89446 85.4302 9.45589 86.4184 10.0792 87.3673C10.3714 87.751 10.6354 88.1555 10.8692 88.5774Z" fill="#263238"/>
<path d="M189.412 74.7647L192.176 69.8887L193.05 68.3467L192.121 66.8372C188.621 61.1499 187.375 54.3593 188.627 47.7999C189.88 41.2405 193.54 35.3868 198.889 31.3893C204.239 27.3918 210.89 25.5396 217.535 26.1968C224.181 26.854 230.34 29.973 234.803 34.9408C239.265 39.9087 241.708 46.366 241.652 53.0436C241.595 59.7213 239.043 66.1363 234.497 71.0278C229.951 75.9193 223.739 78.9336 217.084 79.4781C210.505 80.0163 203.681 77.7643 198.336 73.6272L197.185 72.736L195.772 73.0891L193.772 73.5891L193.746 73.5958L193.719 73.603L189.412 74.7647Z" stroke="white" stroke-width="6"/>
<path d="M218.24 39.1901L217.249 54.8775C217.209 55.4979 216.943 56.0822 216.503 56.5208C216.062 56.9593 215.477 57.2217 214.856 57.2587C214.208 57.2988 213.569 57.0888 213.071 56.6719C212.572 56.255 212.253 55.6629 212.178 55.0176L210.436 39.2517C210.401 38.9686 210.428 38.6814 210.514 38.4094C210.599 38.1374 210.742 37.8869 210.933 37.6747C211.123 37.4624 211.357 37.2934 211.618 37.1789C211.879 37.0643 212.162 37.007 212.447 37.0107L216.274 37.0667C216.544 37.0707 216.811 37.1296 217.058 37.2397C217.305 37.3499 217.528 37.509 217.711 37.7075C217.895 37.906 218.037 38.1398 218.128 38.3946C218.219 38.6494 218.257 38.9201 218.24 39.1901Z" fill="#06A77D"/>
<path d="M211.523 66.0833C211.761 66.803 212.207 67.436 212.805 67.9021C213.403 68.3682 214.125 68.6465 214.881 68.7018C215.638 68.7571 216.393 68.587 217.052 68.2128C217.712 67.8387 218.245 67.2774 218.586 66.6C218.926 65.9226 219.058 65.1594 218.964 64.4071C218.871 63.6548 218.556 62.9471 218.06 62.3736C217.564 61.8001 216.91 61.3866 216.179 61.1852C215.448 60.9839 214.674 61.0039 213.954 61.2426C212.991 61.5637 212.194 62.2534 211.739 63.1607C211.283 64.068 211.205 65.1189 211.523 66.0833Z" fill="#06A77D"/>
</svg>
